<?xml version="1.0" encoding="UTF-8"?>
<!DOCTYPE svg PUBLIC "-//W3C//DTD SVG 1.1//EN" "http://www.w3.org/Graphics/SVG/1.1/DTD/svg11.dtd">
<svg xmlns="http://www.w3.org/2000/svg" version="1.1" width="512px" height="512px" style="shape-rendering:geometricPrecision; text-rendering:geometricPrecision; image-rendering:optimizeQuality; fill-rule:evenodd; clip-rule:evenodd" xmlns:xlink="http://www.w3.org/1999/xlink">
<g><path style="opacity:0.097" fill="#060506" d="M 72.5,-0.5 C 194.833,-0.5 317.167,-0.5 439.5,-0.5C 473.615,4.76993 496.449,23.7699 508,56.5C 509.125,61.6457 510.291,66.6457 511.5,71.5C 511.5,193.833 511.5,316.167 511.5,438.5C 507.243,470.468 490.243,492.968 460.5,506C 452.495,508.43 444.495,510.264 436.5,511.5C 315.833,511.5 195.167,511.5 74.5,511.5C 31.1575,504.824 6.15754,479.824 -0.5,436.5C -0.5,315.833 -0.5,195.167 -0.5,74.5C 3.38844,38.7633 22.3884,14.93 56.5,3C 61.9539,1.74505 67.2872,0.578384 72.5,-0.5 Z"/></g>
<g><path style="opacity:1" fill="#fbfbfb" d="M 500.5,66.5 C 500.667,181.834 500.5,297.167 500,412.5C 499.5,360.834 499.333,309.168 499.5,257.5C 500.144,240.095 499.478,222.929 497.5,206C 499.604,204.164 499.938,201.998 498.5,199.5C 496.564,201.978 494.564,201.978 492.5,199.5C 490.348,201.812 488.348,201.478 486.5,198.5C 485.167,201.167 483.833,201.167 482.5,198.5C 479.29,200.476 475.957,201.142 472.5,200.5C 470.884,199.885 469.551,198.885 468.5,197.5C 467.167,198.833 465.833,200.167 464.5,201.5C 463.059,200.696 461.559,200.029 460,199.5C 455.996,203.685 452.496,203.352 449.5,198.5C 446.29,200.476 442.957,201.142 439.5,200.5C 437.884,199.885 436.551,198.885 435.5,197.5C 434.167,198.833 432.833,200.167 431.5,201.5C 429.283,199.321 427.283,199.321 425.5,201.5C 423.566,201.099 422.066,200.099 421,198.5C 419.983,201.028 418.816,201.028 417.5,198.5C 414.29,200.476 410.957,201.142 407.5,200.5C 405.884,199.885 404.551,198.885 403.5,197.5C 402.167,198.833 400.833,200.167 399.5,201.5C 397.283,199.321 395.283,199.321 393.5,201.5C 391.884,200.885 390.551,199.885 389.5,198.5C 387.88,201.058 386.38,201.058 385,198.5C 383.562,199.718 381.895,200.385 380,200.5C 378.089,199.593 376.256,199.593 374.5,200.5C 372.884,199.885 371.551,198.885 370.5,197.5C 369.167,198.833 367.833,200.167 366.5,201.5C 361.464,198.65 360.797,199.15 364.5,203C 363.975,203.692 363.308,204.192 362.5,204.5C 361.437,202.565 360.103,200.899 358.5,199.5C 359.025,198.808 359.692,198.308 360.5,198C 358.42,197.211 356.586,196.044 355,194.5C 354.5,194.833 354,195.167 353.5,195.5C 354.665,196.584 355.998,197.417 357.5,198C 356.354,198.645 355.354,199.478 354.5,200.5C 353.5,199.167 352.5,197.833 351.5,196.5C 350.494,196.938 350.494,197.604 351.5,198.5C 350.562,199.553 349.395,200.22 348,200.5C 346.144,199.264 344.311,199.264 342.5,200.5C 340.884,199.885 339.551,198.885 338.5,197.5C 337.167,198.833 335.833,200.167 334.5,201.5C 332.283,199.321 330.283,199.321 328.5,201.5C 326.884,200.885 325.551,199.885 324.5,198.5C 323.167,201.167 321.833,201.167 320.5,198.5C 317.29,200.476 313.957,201.142 310.5,200.5C 308.884,199.885 307.551,198.885 306.5,197.5C 305.167,198.833 303.833,200.167 302.5,201.5C 300.283,199.321 298.283,199.321 296.5,201.5C 294.884,200.885 293.551,199.885 292.5,198.5C 291.167,201.167 289.833,201.167 288.5,198.5C 286.941,199.447 285.274,200.113 283.5,200.5C 280.209,200.753 276.876,200.42 273.5,199.5C 273.649,198.448 273.483,197.448 273,196.5C 271.761,201.305 269.261,202.305 265.5,199.5C 264.614,200.325 264.281,201.325 264.5,202.5C 236.865,165.254 209.698,127.587 183,89.5C 179.989,85.4802 176.156,82.6468 171.5,81C 158.833,80.3333 146.167,80.3333 133.5,81C 125.129,84.9087 121.963,91.4087 124,100.5C 125.333,103.167 126.667,105.833 128,108.5C 152.333,141.176 176.166,174.176 199.5,207.5C 197.405,206.588 195.405,205.421 193.5,204C 193.833,203.667 194.167,203.333 194.5,203C 192.981,201.649 191.648,200.149 190.5,198.5C 187.29,200.476 183.957,201.142 180.5,200.5C 178.884,199.885 177.551,198.885 176.5,197.5C 175.167,198.833 173.833,200.167 172.5,201.5C 170.18,199.206 168.013,199.206 166,201.5C 165.228,201.355 164.561,201.022 164,200.5C 163.692,201.308 163.192,201.975 162.5,202.5C 161.3,201.469 159.966,200.635 158.5,200C 159.451,199.282 159.617,198.449 159,197.5C 158.311,198.357 157.478,199.023 156.5,199.5C 153.95,198.058 151.284,196.892 148.5,196C 149.328,195.085 150.328,194.419 151.5,194C 150.216,193.316 149.049,193.483 148,194.5C 147.576,192.385 146.409,191.552 144.5,192C 147.416,194.071 147.082,195.405 143.5,196C 147.385,196.739 151.052,198.073 154.5,200C 153.185,201.395 153.519,202.395 155.5,203C 154.584,203.374 153.75,203.874 153,204.5C 151.632,202.973 151.132,201.473 151.5,200C 150.216,199.316 149.049,199.483 148,200.5C 146.686,199.687 145.519,198.687 144.5,197.5C 143.167,198.833 141.833,200.167 140.5,201.5C 138.283,199.321 136.283,199.321 134.5,201.5C 132.868,200.703 131.368,199.703 130,198.5C 128.419,200.847 127.086,200.847 126,198.5C 122.612,200.396 119.112,201.062 115.5,200.5C 113.884,199.885 112.551,198.885 111.5,197.5C 110.167,198.833 108.833,200.167 107.5,201.5C 105.283,199.321 103.283,199.321 101.5,201.5C 99.8839,200.885 98.5505,199.885 97.5,198.5C 96.1667,201.167 94.8333,201.167 93.5,198.5C 90.2904,200.476 86.957,201.142 83.5,200.5C 81.8839,199.885 80.5505,198.885 79.5,197.5C 78.1667,198.833 76.8333,200.167 75.5,201.5C 73.2828,199.321 71.2828,199.321 69.5,201.5C 67.8839,200.885 66.5505,199.885 65.5,198.5C 64.1667,201.167 62.8333,201.167 61.5,198.5C 59.941,199.447 58.2743,200.113 56.5,200.5C 54.641,199.31 52.8077,199.31 51,200.5C 49.1026,200.104 47.6026,199.104 46.5,197.5C 45.1667,198.833 43.8333,200.167 42.5,201.5C 40.2828,199.321 38.2828,199.321 36.5,201.5C 34.8839,200.885 33.5505,199.885 32.5,198.5C 31.1667,201.167 29.8333,201.167 28.5,198.5C 25.2904,200.476 21.957,201.142 18.5,200.5C 17.3348,199.509 16.1681,198.509 15,197.5C 13.012,198.988 11.1787,200.654 9.5,202.5C 10.0253,203.192 10.6919,203.692 11.5,204C 8.83333,205.667 8.83333,207.333 11.5,209C 9.83934,249.784 8.83934,290.617 8.5,331.5C 8.5,243.167 8.5,154.833 8.5,66.5C 16.9197,30.2497 39.5863,9.4164 76.5,4C 194.833,3.33333 313.167,3.33333 431.5,4C 468.724,9.25759 491.724,30.0909 500.5,66.5 Z"/></g>
<g><path style="opacity:1" fill="#1665c0" d="M 264.5,202.5 C 271.366,213.546 278.866,224.213 287,234.5C 288.612,236.456 288.778,238.456 287.5,240.5C 246.19,297.094 204.856,353.761 163.5,410.5C 160.488,412.502 157.155,413.669 153.5,414C 142.833,414.667 132.167,414.667 121.5,414C 119.14,412.82 116.807,411.653 114.5,410.5C 109.147,404.013 108.314,397.013 112,389.5C 148.388,339.445 184.388,289.112 220,238.5C 220.52,236.711 220.187,235.044 219,233.5C 212.252,224.932 205.752,216.266 199.5,207.5C 176.166,174.176 152.333,141.176 128,108.5C 126.667,105.833 125.333,103.167 124,100.5C 121.963,91.4087 125.129,84.9087 133.5,81C 146.167,80.3333 158.833,80.3333 171.5,81C 176.156,82.6468 179.989,85.4802 183,89.5C 209.698,127.587 236.865,165.254 264.5,202.5 Z"/></g>
<g><path style="opacity:1" fill="#1565bf" d="M 379.5,82.5 C 380.833,84.5 382.5,86.1667 384.5,87.5C 387.266,93.1253 387.1,98.792 384,104.5C 364.028,133.305 343.861,161.972 323.5,190.5C 311.06,175.895 299.894,160.561 290,144.5C 303.624,124.753 317.124,104.92 330.5,85C 332.67,83.4138 335.004,82.0804 337.5,81C 349.833,80.3333 362.167,80.3333 374.5,81C 376.154,81.6077 377.821,82.1077 379.5,82.5 Z"/></g>
<g><path style="opacity:1" fill="#8eb4d3" d="M 379.5,82.5 C 382.167,83.1667 383.833,84.8333 384.5,87.5C 382.5,86.1667 380.833,84.5 379.5,82.5 Z"/></g>
<g><path style="opacity:1" fill="#f8f9fa" d="M 499.5,257.5 C 496.436,257.856 493.769,257.023 491.5,255C 492.167,254.667 492.833,254.333 493.5,254C 491.847,252.195 490.18,250.362 488.5,248.5C 488.167,249 487.833,249.5 487.5,250C 489.915,251.86 489.915,253.526 487.5,255C 488.167,255.333 488.833,255.667 489.5,256C 488.23,256.9 487.23,258.066 486.5,259.5C 484.167,257.167 481.833,254.833 479.5,252.5C 480.833,251.167 482.167,249.833 483.5,248.5C 480.358,247.913 478.025,249.247 476.5,252.5C 475.833,251.833 475.167,251.167 474.5,250.5C 473.167,251.833 471.833,251.833 470.5,250.5C 468.781,253.048 467.448,252.715 466.5,249.5C 464.837,250.875 463.503,250.542 462.5,248.5C 460.075,249.308 457.742,250.308 455.5,251.5C 456.811,252.258 457.311,253.258 457,254.5C 455.644,253.62 454.144,253.286 452.5,253.5C 450.77,246.118 447.77,245.785 443.5,252.5C 442.833,251.833 442.167,251.167 441.5,250.5C 440.167,251.833 438.833,251.833 437.5,250.5C 435.781,253.048 434.448,252.715 433.5,249.5C 431.837,250.875 430.503,250.542 429.5,248.5C 428.167,249.167 426.833,249.833 425.5,250.5C 424.476,249.147 423.143,248.48 421.5,248.5C 421.5,249.5 421.5,250.5 421.5,251.5C 422.5,251.5 423.5,251.5 424.5,251.5C 424.5,252.5 424.5,253.5 424.5,254.5C 420.551,254.693 420.551,255.193 424.5,256C 423.552,256.483 422.552,256.649 421.5,256.5C 421.649,257.552 421.483,258.552 421,259.5C 419.017,257.016 416.85,254.683 414.5,252.5C 415.833,251.167 417.167,249.833 418.5,248.5C 415.358,247.913 413.025,249.247 411.5,252.5C 410.833,251.833 410.167,251.167 409.5,250.5C 408.167,251.833 406.833,251.833 405.5,250.5C 403.781,253.048 402.448,252.715 401.5,249.5C 399.837,250.875 398.503,250.542 397.5,248.5C 395.283,250.679 393.283,250.679 391.5,248.5C 391.167,249 390.833,249.5 390.5,250C 392.915,251.86 392.915,253.526 390.5,255C 391.167,255.333 391.833,255.667 392.5,256C 391.23,256.9 390.23,258.066 389.5,259.5C 386.496,257.816 384.163,255.483 382.5,252.5C 383.732,250.843 384.566,249.176 385,247.5C 383.416,248.861 381.582,249.528 379.5,249.5C 379.367,252.896 378.367,253.229 376.5,250.5C 375.167,251.833 373.833,251.833 372.5,250.5C 370.781,253.048 369.448,252.715 368.5,249.5C 366.844,251.022 365.677,250.689 365,248.5C 364.25,249.126 363.416,249.626 362.5,250C 364.062,251.887 365.729,252.72 367.5,252.5C 366.054,254.725 364.054,255.558 361.5,255C 362.167,254.667 362.833,254.333 363.5,254C 362.386,252.43 361.053,251.097 359.5,250C 359.833,249.667 360.167,249.333 360.5,249C 358.956,247.813 357.289,247.48 355.5,248C 357.731,249.277 359.398,251.111 360.5,253.5C 359.088,254.806 357.421,255.64 355.5,256C 357.92,257.716 359.42,259.883 360,262.5C 355.223,258.386 351.389,254.053 348.5,249.5C 347.996,252.522 346.329,253.689 343.5,253C 345.271,252.465 345.604,251.631 344.5,250.5C 343.167,251.833 341.833,251.833 340.5,250.5C 338.781,253.048 337.448,252.715 336.5,249.5C 334.837,250.875 333.503,250.542 332.5,248.5C 330.283,250.679 328.283,250.679 326.5,248.5C 326.167,249 325.833,249.5 325.5,250C 327.915,251.86 327.915,253.526 325.5,255C 326.167,255.333 326.833,255.667 327.5,256C 326.23,256.9 325.23,258.066 324.5,259.5C 322.167,257.167 319.833,254.833 317.5,252.5C 318.833,251.167 320.167,249.833 321.5,248.5C 318.358,247.913 316.025,249.247 314.5,252.5C 313.833,251.833 313.167,251.167 312.5,250.5C 311.167,251.833 309.833,251.833 308.5,250.5C 306.781,253.048 305.448,252.715 304.5,249.5C 302.837,250.875 301.503,250.542 300.5,248.5C 299.167,249.167 297.833,249.833 296.5,250.5C 295.107,249.137 293.441,248.304 291.5,248C 292.167,247.667 292.833,247.333 293.5,247C 289.538,245.789 288.871,243.789 291.5,241C 290.207,240.51 288.873,240.343 287.5,240.5C 288.778,238.456 288.612,236.456 287,234.5C 278.866,224.213 271.366,213.546 264.5,202.5C 264.281,201.325 264.614,200.325 265.5,199.5C 269.261,202.305 271.761,201.305 273,196.5C 273.483,197.448 273.649,198.448 273.5,199.5C 276.876,200.42 280.209,200.753 283.5,200.5C 285.274,200.113 286.941,199.447 288.5,198.5C 289.833,201.167 291.167,201.167 292.5,198.5C 293.551,199.885 294.884,200.885 296.5,201.5C 298.283,199.321 300.283,199.321 302.5,201.5C 303.833,200.167 305.167,198.833 306.5,197.5C 307.551,198.885 308.884,199.885 310.5,200.5C 313.957,201.142 317.29,200.476 320.5,198.5C 321.833,201.167 323.167,201.167 324.5,198.5C 325.551,199.885 326.884,200.885 328.5,201.5C 330.283,199.321 332.283,199.321 334.5,201.5C 335.833,200.167 337.167,198.833 338.5,197.5C 339.551,198.885 340.884,199.885 342.5,200.5C 344.311,199.264 346.144,199.264 348,200.5C 349.395,200.22 350.562,199.553 351.5,198.5C 350.494,197.604 350.494,196.938 351.5,196.5C 352.5,197.833 353.5,199.167 354.5,200.5C 355.354,199.478 356.354,198.645 357.5,198C 355.998,197.417 354.665,196.584 353.5,195.5C 354,195.167 354.5,194.833 355,194.5C 356.586,196.044 358.42,197.211 360.5,198C 359.692,198.308 359.025,198.808 358.5,199.5C 360.103,200.899 361.437,202.565 362.5,204.5C 363.308,204.192 363.975,203.692 364.5,203C 360.797,199.15 361.464,198.65 366.5,201.5C 367.833,200.167 369.167,198.833 370.5,197.5C 371.551,198.885 372.884,199.885 374.5,200.5C 376.256,199.593 378.089,199.593 380,200.5C 381.895,200.385 383.562,199.718 385,198.5C 386.38,201.058 387.88,201.058 389.5,198.5C 390.551,199.885 391.884,200.885 393.5,201.5C 395.283,199.321 397.283,199.321 399.5,201.5C 400.833,200.167 402.167,198.833 403.5,197.5C 404.551,198.885 405.884,199.885 407.5,200.5C 410.957,201.142 414.29,200.476 417.5,198.5C 418.816,201.028 419.983,201.028 421,198.5C 422.066,200.099 423.566,201.099 425.5,201.5C 427.283,199.321 429.283,199.321 431.5,201.5C 432.833,200.167 434.167,198.833 435.5,197.5C 436.551,198.885 437.884,199.885 439.5,200.5C 442.957,201.142 446.29,200.476 449.5,198.5C 452.496,203.352 455.996,203.685 460,199.5C 461.559,200.029 463.059,200.696 464.5,201.5C 465.833,200.167 467.167,198.833 468.5,197.5C 469.551,198.885 470.884,199.885 472.5,200.5C 475.957,201.142 479.29,200.476 482.5,198.5C 483.833,201.167 485.167,201.167 486.5,198.5C 488.348,201.478 490.348,201.812 492.5,199.5C 494.564,201.978 496.564,201.978 498.5,199.5C 499.938,201.998 499.604,204.164 497.5,206C 499.478,222.929 500.144,240.095 499.5,257.5 Z"/></g>
<g><path style="opacity:1" fill="#f6f8f8" d="M 199.5,207.5 C 205.752,216.266 212.252,224.932 219,233.5C 220.187,235.044 220.52,236.711 220,238.5C 184.388,289.112 148.388,339.445 112,389.5C 108.314,397.013 109.147,404.013 114.5,410.5C 113.671,411.332 112.838,410.999 112,409.5C 109.979,412.286 108.479,411.953 107.5,408.5C 105.833,409.5 104.167,410.5 102.5,411.5C 100.865,410.954 99.1986,410.62 97.5,410.5C 97.5,411.5 97.5,412.5 97.5,413.5C 98.5,413.5 99.5,413.5 100.5,413.5C 100.5,414.5 100.5,415.5 100.5,416.5C 99.1779,416.67 98.0113,416.337 97,415.5C 96.6301,411.625 94.7967,408.625 91.5,406.5C 90.8333,407.167 90.1667,407.833 89.5,408.5C 87.5675,407.48 85.5675,407.313 83.5,408C 81.6641,409.419 79.6641,410.586 77.5,411.5C 76.8333,410.5 76.1667,409.5 75.5,408.5C 73.8333,409.5 72.1667,410.5 70.5,411.5C 69.4461,411.32 68.4461,410.987 67.5,410.5C 67.5,412.5 67.5,414.5 67.5,416.5C 65.3432,415.152 64.0099,413.152 63.5,410.5C 62.4763,409.147 61.143,408.48 59.5,408.5C 59.5,409.5 59.5,410.5 59.5,411.5C 60.5,411.5 61.5,411.5 62.5,411.5C 62.5,412.833 62.5,414.167 62.5,415.5C 60.712,415.785 59.0453,415.452 57.5,414.5C 58.0253,413.808 58.6919,413.308 59.5,413C 54.8674,407.993 49.8674,407.493 44.5,411.5C 43.8333,410.5 43.1667,409.5 42.5,408.5C 40.8333,409.5 39.1667,410.5 37.5,411.5C 36.4461,411.32 35.4461,410.987 34.5,410.5C 34.5,412.5 34.5,414.5 34.5,416.5C 32.2537,412.967 29.587,409.633 26.5,406.5C 25.2623,408.734 23.5957,409.068 21.5,407.5C 17.9149,409.129 14.2482,410.462 10.5,411.5C 9.59257,416.115 9.09257,422.782 9,431.5C 8.50002,398.168 8.33335,364.835 8.5,331.5C 8.83934,290.617 9.83934,249.784 11.5,209C 8.83333,207.333 8.83333,205.667 11.5,204C 10.6919,203.692 10.0253,203.192 9.5,202.5C 11.1787,200.654 13.012,198.988 15,197.5C 16.1681,198.509 17.3348,199.509 18.5,200.5C 21.957,201.142 25.2904,200.476 28.5,198.5C 29.8333,201.167 31.1667,201.167 32.5,198.5C 33.5505,199.885 34.8839,200.885 36.5,201.5C 38.2828,199.321 40.2828,199.321 42.5,201.5C 43.8333,200.167 45.1667,198.833 46.5,197.5C 47.6026,199.104 49.1026,200.104 51,200.5C 52.8077,199.31 54.641,199.31 56.5,200.5C 58.2743,200.113 59.941,199.447 61.5,198.5C 62.8333,201.167 64.1667,201.167 65.5,198.5C 66.5505,199.885 67.8839,200.885 69.5,201.5C 71.2828,199.321 73.2828,199.321 75.5,201.5C 76.8333,200.167 78.1667,198.833 79.5,197.5C 80.5505,198.885 81.8839,199.885 83.5,200.5C 86.957,201.142 90.2904,200.476 93.5,198.5C 94.8333,201.167 96.1667,201.167 97.5,198.5C 98.5505,199.885 99.8839,200.885 101.5,201.5C 103.283,199.321 105.283,199.321 107.5,201.5C 108.833,200.167 110.167,198.833 111.5,197.5C 112.551,198.885 113.884,199.885 115.5,200.5C 119.112,201.062 122.612,200.396 126,198.5C 127.086,200.847 128.419,200.847 130,198.5C 131.368,199.703 132.868,200.703 134.5,201.5C 136.283,199.321 138.283,199.321 140.5,201.5C 141.833,200.167 143.167,198.833 144.5,197.5C 145.519,198.687 146.686,199.687 148,200.5C 149.049,199.483 150.216,199.316 151.5,200C 151.132,201.473 151.632,202.973 153,204.5C 153.75,203.874 154.584,203.374 155.5,203C 153.519,202.395 153.185,201.395 154.5,200C 151.052,198.073 147.385,196.739 143.5,196C 147.082,195.405 147.416,194.071 144.5,192C 146.409,191.552 147.576,192.385 148,194.5C 149.049,193.483 150.216,193.316 151.5,194C 150.328,194.419 149.328,195.085 148.5,196C 151.284,196.892 153.95,198.058 156.5,199.5C 157.478,199.023 158.311,198.357 159,197.5C 159.617,198.449 159.451,199.282 158.5,200C 159.966,200.635 161.3,201.469 162.5,202.5C 163.192,201.975 163.692,201.308 164,200.5C 164.561,201.022 165.228,201.355 166,201.5C 168.013,199.206 170.18,199.206 172.5,201.5C 173.833,200.167 175.167,198.833 176.5,197.5C 177.551,198.885 178.884,199.885 180.5,200.5C 183.957,201.142 187.29,200.476 190.5,198.5C 191.648,200.149 192.981,201.649 194.5,203C 194.167,203.333 193.833,203.667 193.5,204C 195.405,205.421 197.405,206.588 199.5,207.5 Z"/></g>
<g><path style="opacity:1" fill="#f5f6f7" d="M 500.5,66.5 C 501.833,188.167 501.833,309.833 500.5,431.5C 500.031,427.448 499.031,423.448 497.5,419.5C 499.991,418.459 499.991,417.626 497.5,417C 499.271,416.465 499.604,415.631 498.5,414.5C 495.465,417.322 492.798,416.988 490.5,413.5C 489.833,414.5 489.167,415.5 488.5,416.5C 486.254,412.967 483.587,409.633 480.5,406.5C 479.262,408.734 477.596,409.068 475.5,407.5C 472.387,408.556 469.387,409.889 466.5,411.5C 465.833,410.5 465.167,409.5 464.5,408.5C 462.123,409.585 459.789,410.752 457.5,412C 457.833,412.333 458.167,412.667 458.5,413C 457.5,413.333 456.5,413.667 455.5,414C 455.833,414.333 456.167,414.667 456.5,415C 455.552,415.483 454.552,415.649 453.5,415.5C 453.553,411.206 451.553,408.206 447.5,406.5C 446.262,408.734 444.596,409.068 442.5,407.5C 439.387,408.556 436.387,409.889 433.5,411.5C 432.833,410.5 432.167,409.5 431.5,408.5C 429.833,409.5 428.167,410.5 426.5,411.5C 425.446,411.32 424.446,410.987 423.5,410.5C 423.5,412.5 423.5,414.5 423.5,416.5C 421.254,412.967 418.587,409.633 415.5,406.5C 414.808,407.025 414.308,407.692 414,408.5C 412.274,407.424 410.441,407.257 408.5,408C 406.167,409.167 403.833,410.333 401.5,411.5C 400.305,409.879 399.305,408.213 398.5,406.5C 401.549,399.888 401.049,393.554 397,387.5C 372.643,353.439 347.81,319.773 322.5,286.5C 310.65,301.027 299.65,316.193 289.5,332C 308.969,358.453 328.302,384.953 347.5,411.5C 347.018,414.451 345.352,416.618 342.5,418C 344.481,418.605 344.815,419.605 343.5,421C 341.227,420.683 340.227,419.183 340.5,416.5C 342.355,416.728 343.188,416.061 343,414.5C 342.667,414.833 342.333,415.167 342,415.5C 341.812,411.489 339.979,410.156 336.5,411.5C 335.833,410.5 335.167,409.5 334.5,408.5C 332.833,409.5 331.167,410.5 329.5,411.5C 328.446,411.32 327.446,410.987 326.5,410.5C 326.5,412.5 326.5,414.5 326.5,416.5C 324.327,412.735 321.494,409.401 318,406.5C 316.618,408.581 314.951,408.915 313,407.5C 310.106,408.697 307.273,410.03 304.5,411.5C 303.833,410.5 303.167,409.5 302.5,408.5C 300.833,409.5 299.167,410.5 297.5,411.5C 296.446,411.32 295.446,410.987 294.5,410.5C 294.5,412.5 294.5,414.5 294.5,416.5C 292.308,414.073 290.308,411.406 288.5,408.5C 288.167,409 287.833,409.5 287.5,410C 288.885,411.597 289.551,413.43 289.5,415.5C 288.022,415.762 286.689,415.429 285.5,414.5C 286.025,413.808 286.692,413.308 287.5,413C 284.729,409.346 283.395,409.846 283.5,414.5C 281.549,414.773 280.049,414.107 279,412.5C 278.692,413.308 278.192,413.975 277.5,414.5C 276.094,413.049 274.594,411.716 273,410.5C 272.667,410.833 272.333,411.167 272,411.5C 271.751,410.376 271.251,409.376 270.5,408.5C 267.875,411.159 264.875,411.826 261.5,410.5C 261.5,412.5 261.5,414.5 261.5,416.5C 259.254,412.967 256.587,409.633 253.5,406.5C 252.262,408.734 250.596,409.068 248.5,407.5C 244.786,408.191 241.452,409.691 238.5,412C 239.5,412.333 240.5,412.667 241.5,413C 240.069,413.465 238.903,414.299 238,415.5C 237.985,413.446 237.152,411.446 235.5,409.5C 234.784,410.311 233.95,410.978 233,411.5C 231.234,410.767 229.401,410.433 227.5,410.5C 227.5,411.5 227.5,412.5 227.5,413.5C 228.833,413.5 230.167,413.5 231.5,413.5C 231.5,414.5 231.5,415.5 231.5,416.5C 227.087,417.015 224.754,415.015 224.5,410.5C 223.167,409.167 221.833,407.833 220.5,406.5C 219.262,408.734 217.596,409.068 215.5,407.5C 212.387,408.556 209.387,409.889 206.5,411.5C 205.479,407.848 203.812,407.514 201.5,410.5C 200.167,411.833 200.167,413.167 201.5,414.5C 201.167,414.833 200.833,415.167 200.5,415.5C 199.833,414.833 199.167,414.167 198.5,413.5C 197.289,414.274 197.289,415.107 198.5,416C 197.5,416.5 196.5,417 195.5,417.5C 194.873,415.602 194.54,413.269 194.5,410.5C 192.007,410.024 190.007,408.69 188.5,406.5C 187.262,408.734 185.596,409.068 183.5,407.5C 180.387,408.556 177.387,409.889 174.5,411.5C 173.614,410.675 173.281,409.675 173.5,408.5C 170.073,408.588 167.74,410.255 166.5,413.5C 165.304,413.154 165.304,412.654 166.5,412C 165.263,411.768 164.263,411.268 163.5,410.5C 204.856,353.761 246.19,297.094 287.5,240.5C 288.873,240.343 290.207,240.51 291.5,241C 288.871,243.789 289.538,245.789 293.5,247C 292.833,247.333 292.167,247.667 291.5,248C 293.441,248.304 295.107,249.137 296.5,250.5C 297.833,249.833 299.167,249.167 300.5,248.5C 301.503,250.542 302.837,250.875 304.5,249.5C 305.448,252.715 306.781,253.048 308.5,250.5C 309.833,251.833 311.167,251.833 312.5,250.5C 313.167,251.167 313.833,251.833 314.5,252.5C 316.025,249.247 318.358,247.913 321.5,248.5C 320.167,249.833 318.833,251.167 317.5,252.5C 319.833,254.833 322.167,257.167 324.5,259.5C 325.23,258.066 326.23,256.9 327.5,256C 326.833,255.667 326.167,255.333 325.5,255C 327.915,253.526 327.915,251.86 325.5,250C 325.833,249.5 326.167,249 326.5,248.5C 328.283,250.679 330.283,250.679 332.5,248.5C 333.503,250.542 334.837,250.875 336.5,249.5C 337.448,252.715 338.781,253.048 340.5,250.5C 341.833,251.833 343.167,251.833 344.5,250.5C 345.604,251.631 345.271,252.465 343.5,253C 346.329,253.689 347.996,252.522 348.5,249.5C 351.389,254.053 355.223,258.386 360,262.5C 359.42,259.883 357.92,257.716 355.5,256C 357.421,255.64 359.088,254.806 360.5,253.5C 359.398,251.111 357.731,249.277 355.5,248C 357.289,247.48 358.956,247.813 360.5,249C 360.167,249.333 359.833,249.667 359.5,250C 361.053,251.097 362.386,252.43 363.5,254C 362.833,254.333 362.167,254.667 361.5,255C 364.054,255.558 366.054,254.725 367.5,252.5C 365.729,252.72 364.062,251.887 362.5,250C 363.416,249.626 364.25,249.126 365,248.5C 365.677,250.689 366.844,251.022 368.5,249.5C 369.448,252.715 370.781,253.048 372.5,250.5C 373.833,251.833 375.167,251.833 376.5,250.5C 378.367,253.229 379.367,252.896 379.5,249.5C 381.582,249.528 383.416,248.861 385,247.5C 384.566,249.176 383.732,250.843 382.5,252.5C 384.163,255.483 386.496,257.816 389.5,259.5C 390.23,258.066 391.23,256.9 392.5,256C 391.833,255.667 391.167,255.333 390.5,255C 392.915,253.526 392.915,251.86 390.5,250C 390.833,249.5 391.167,249 391.5,248.5C 393.283,250.679 395.283,250.679 397.5,248.5C 398.503,250.542 399.837,250.875 401.5,249.5C 402.448,252.715 403.781,253.048 405.5,250.5C 406.833,251.833 408.167,251.833 409.5,250.5C 410.167,251.167 410.833,251.833 411.5,252.5C 413.025,249.247 415.358,247.913 418.5,248.5C 417.167,249.833 415.833,251.167 414.5,252.5C 416.85,254.683 419.017,257.016 421,259.5C 421.483,258.552 421.649,257.552 421.5,256.5C 422.552,256.649 423.552,256.483 424.5,256C 420.551,255.193 420.551,254.693 424.5,254.5C 424.5,253.5 424.5,252.5 424.5,251.5C 423.5,251.5 422.5,251.5 421.5,251.5C 421.5,250.5 421.5,249.5 421.5,248.5C 423.143,248.48 424.476,249.147 425.5,250.5C 426.833,249.833 428.167,249.167 429.5,248.5C 430.503,250.542 431.837,250.875 433.5,249.5C 434.448,252.715 435.781,253.048 437.5,250.5C 438.833,251.833 440.167,251.833 441.5,250.5C 442.167,251.167 442.833,251.833 443.5,252.5C 447.77,245.785 450.77,246.118 452.5,253.5C 454.144,253.286 455.644,253.62 457,254.5C 457.311,253.258 456.811,252.258 455.5,251.5C 457.742,250.308 460.075,249.308 462.5,248.5C 463.503,250.542 464.837,250.875 466.5,249.5C 467.448,252.715 468.781,253.048 470.5,250.5C 471.833,251.833 473.167,251.833 474.5,250.5C 475.167,251.167 475.833,251.833 476.5,252.5C 478.025,249.247 480.358,247.913 483.5,248.5C 482.167,249.833 480.833,251.167 479.5,252.5C 481.833,254.833 484.167,257.167 486.5,259.5C 487.23,258.066 488.23,256.9 489.5,256C 488.833,255.667 488.167,255.333 487.5,255C 489.915,253.526 489.915,251.86 487.5,250C 487.833,249.5 488.167,249 488.5,248.5C 490.18,250.362 491.847,252.195 493.5,254C 492.833,254.333 492.167,254.667 491.5,255C 493.769,257.023 496.436,257.856 499.5,257.5C 499.333,309.168 499.5,360.834 500,412.5C 500.5,297.167 500.667,181.834 500.5,66.5 Z"/></g>
<g><path style="opacity:1" fill="#1a65c0" d="M 398.5,406.5 C 395.946,410.457 392.279,412.957 387.5,414C 375.833,414.667 364.167,414.667 352.5,414C 350.807,413.153 349.14,412.32 347.5,411.5C 328.302,384.953 308.969,358.453 289.5,332C 299.65,316.193 310.65,301.027 322.5,286.5C 347.81,319.773 372.643,353.439 397,387.5C 401.049,393.554 401.549,399.888 398.5,406.5 Z"/></g>
<g><path style="opacity:1" fill="#f1f3f4" d="M 8.5,66.5 C 8.5,154.833 8.5,243.167 8.5,331.5C 8.33335,364.835 8.50002,398.168 9,431.5C 9.09257,422.782 9.59257,416.115 10.5,411.5C 14.2482,410.462 17.9149,409.129 21.5,407.5C 23.5957,409.068 25.2623,408.734 26.5,406.5C 29.587,409.633 32.2537,412.967 34.5,416.5C 34.5,414.5 34.5,412.5 34.5,410.5C 35.4461,410.987 36.4461,411.32 37.5,411.5C 39.1667,410.5 40.8333,409.5 42.5,408.5C 43.1667,409.5 43.8333,410.5 44.5,411.5C 49.8674,407.493 54.8674,407.993 59.5,413C 58.6919,413.308 58.0253,413.808 57.5,414.5C 59.0453,415.452 60.712,415.785 62.5,415.5C 62.5,414.167 62.5,412.833 62.5,411.5C 61.5,411.5 60.5,411.5 59.5,411.5C 59.5,410.5 59.5,409.5 59.5,408.5C 61.143,408.48 62.4763,409.147 63.5,410.5C 64.0099,413.152 65.3432,415.152 67.5,416.5C 67.5,414.5 67.5,412.5 67.5,410.5C 68.4461,410.987 69.4461,411.32 70.5,411.5C 72.1667,410.5 73.8333,409.5 75.5,408.5C 76.1667,409.5 76.8333,410.5 77.5,411.5C 79.6641,410.586 81.6641,409.419 83.5,408C 85.5675,407.313 87.5675,407.48 89.5,408.5C 90.1667,407.833 90.8333,407.167 91.5,406.5C 94.7967,408.625 96.6301,411.625 97,415.5C 98.0113,416.337 99.1779,416.67 100.5,416.5C 100.5,415.5 100.5,414.5 100.5,413.5C 99.5,413.5 98.5,413.5 97.5,413.5C 97.5,412.5 97.5,411.5 97.5,410.5C 99.1986,410.62 100.865,410.954 102.5,411.5C 104.167,410.5 105.833,409.5 107.5,408.5C 108.479,411.953 109.979,412.286 112,409.5C 112.838,410.999 113.671,411.332 114.5,410.5C 116.807,411.653 119.14,412.82 121.5,414C 132.167,414.667 142.833,414.667 153.5,414C 157.155,413.669 160.488,412.502 163.5,410.5C 164.263,411.268 165.263,411.768 166.5,412C 165.304,412.654 165.304,413.154 166.5,413.5C 167.74,410.255 170.073,408.588 173.5,408.5C 173.281,409.675 173.614,410.675 174.5,411.5C 177.387,409.889 180.387,408.556 183.5,407.5C 185.596,409.068 187.262,408.734 188.5,406.5C 190.007,408.69 192.007,410.024 194.5,410.5C 194.54,413.269 194.873,415.602 195.5,417.5C 196.5,417 197.5,416.5 198.5,416C 197.289,415.107 197.289,414.274 198.5,413.5C 199.167,414.167 199.833,414.833 200.5,415.5C 200.833,415.167 201.167,414.833 201.5,414.5C 200.167,413.167 200.167,411.833 201.5,410.5C 203.812,407.514 205.479,407.848 206.5,411.5C 209.387,409.889 212.387,408.556 215.5,407.5C 217.596,409.068 219.262,408.734 220.5,406.5C 221.833,407.833 223.167,409.167 224.5,410.5C 224.754,415.015 227.087,417.015 231.5,416.5C 231.5,415.5 231.5,414.5 231.5,413.5C 230.167,413.5 228.833,413.5 227.5,413.5C 227.5,412.5 227.5,411.5 227.5,410.5C 229.401,410.433 231.234,410.767 233,411.5C 233.95,410.978 234.784,410.311 235.5,409.5C 237.152,411.446 237.985,413.446 238,415.5C 238.903,414.299 240.069,413.465 241.5,413C 240.5,412.667 239.5,412.333 238.5,412C 241.452,409.691 244.786,408.191 248.5,407.5C 250.596,409.068 252.262,408.734 253.5,406.5C 256.587,409.633 259.254,412.967 261.5,416.5C 261.5,414.5 261.5,412.5 261.5,410.5C 264.875,411.826 267.875,411.159 270.5,408.5C 271.251,409.376 271.751,410.376 272,411.5C 272.333,411.167 272.667,410.833 273,410.5C 274.594,411.716 276.094,413.049 277.5,414.5C 278.192,413.975 278.692,413.308 279,412.5C 280.049,414.107 281.549,414.773 283.5,414.5C 283.395,409.846 284.729,409.346 287.5,413C 286.692,413.308 286.025,413.808 285.5,414.5C 286.689,415.429 288.022,415.762 289.5,415.5C 289.551,413.43 288.885,411.597 287.5,410C 287.833,409.5 288.167,409 288.5,408.5C 290.308,411.406 292.308,414.073 294.5,416.5C 294.5,414.5 294.5,412.5 294.5,410.5C 295.446,410.987 296.446,411.32 297.5,411.5C 299.167,410.5 300.833,409.5 302.5,408.5C 303.167,409.5 303.833,410.5 304.5,411.5C 307.273,410.03 310.106,408.697 313,407.5C 314.951,408.915 316.618,408.581 318,406.5C 321.494,409.401 324.327,412.735 326.5,416.5C 326.5,414.5 326.5,412.5 326.5,410.5C 327.446,410.987 328.446,411.32 329.5,411.5C 331.167,410.5 332.833,409.5 334.5,408.5C 335.167,409.5 335.833,410.5 336.5,411.5C 339.979,410.156 341.812,411.489 342,415.5C 342.333,415.167 342.667,414.833 343,414.5C 343.188,416.061 342.355,416.728 340.5,416.5C 340.227,419.183 341.227,420.683 343.5,421C 344.815,419.605 344.481,418.605 342.5,418C 345.352,416.618 347.018,414.451 347.5,411.5C 349.14,412.32 350.807,413.153 352.5,414C 364.167,414.667 375.833,414.667 387.5,414C 392.279,412.957 395.946,410.457 398.5,406.5C 399.305,408.213 400.305,409.879 401.5,411.5C 403.833,410.333 406.167,409.167 408.5,408C 410.441,407.257 412.274,407.424 414,408.5C 414.308,407.692 414.808,407.025 415.5,406.5C 418.587,409.633 421.254,412.967 423.5,416.5C 423.5,414.5 423.5,412.5 423.5,410.5C 424.446,410.987 425.446,411.32 426.5,411.5C 428.167,410.5 429.833,409.5 431.5,408.5C 432.167,409.5 432.833,410.5 433.5,411.5C 436.387,409.889 439.387,408.556 442.5,407.5C 444.596,409.068 446.262,408.734 447.5,406.5C 451.553,408.206 453.553,411.206 453.5,415.5C 454.552,415.649 455.552,415.483 456.5,415C 456.167,414.667 455.833,414.333 455.5,414C 456.5,413.667 457.5,413.333 458.5,413C 458.167,412.667 457.833,412.333 457.5,412C 459.789,410.752 462.123,409.585 464.5,408.5C 465.167,409.5 465.833,410.5 466.5,411.5C 469.387,409.889 472.387,408.556 475.5,407.5C 477.596,409.068 479.262,408.734 480.5,406.5C 483.587,409.633 486.254,412.967 488.5,416.5C 489.167,415.5 489.833,414.5 490.5,413.5C 492.798,416.988 495.465,417.322 498.5,414.5C 499.604,415.631 499.271,416.465 497.5,417C 499.991,417.626 499.991,418.459 497.5,419.5C 499.031,423.448 500.031,427.448 500.5,431.5C 495.719,464.455 477.385,485.955 445.5,496C 441.886,496.945 438.219,497.612 434.5,498C 314.167,498.667 193.833,498.667 73.5,498C 38.3631,491.198 16.5298,470.365 8,435.5C 7.16734,312.333 7.33401,189.333 8.5,66.5 Z"/></g>
</svg>
