<?xml version="1.0" encoding="UTF-8"?>
<!DOCTYPE svg PUBLIC "-//W3C//DTD SVG 1.1//EN" "http://www.w3.org/Graphics/SVG/1.1/DTD/svg11.dtd">
<svg xmlns="http://www.w3.org/2000/svg" version="1.1" width="400px" height="400px" style="shape-rendering:geometricPrecision; text-rendering:geometricPrecision; image-rendering:optimizeQuality; fill-rule:evenodd; clip-rule:evenodd" xmlns:xlink="http://www.w3.org/1999/xlink">
<g><path style="opacity:1" fill="#eeeeee" d="M -0.5,-0.5 C 132.833,-0.5 266.167,-0.5 399.5,-0.5C 399.5,33.1667 399.5,66.8333 399.5,100.5C 398.504,100.586 397.671,100.252 397,99.5C 396.517,100.448 396.351,101.448 396.5,102.5C 391.473,102.095 386.473,101.428 381.5,100.5C 378.441,101.362 375.441,101.362 372.5,100.5C 371.614,99.675 371.281,98.675 371.5,97.5C 366.197,96.7702 360.864,96.6036 355.5,97C 353.054,96.1192 350.721,94.9525 348.5,93.5C 346.382,94.9459 344.049,95.6126 341.5,95.5C 341.5,94.5 341.5,93.5 341.5,92.5C 339.167,92.5 336.833,92.5 334.5,92.5C 334.5,93.5 334.5,94.5 334.5,95.5C 326.768,95.1392 319.101,95.6392 311.5,97C 309.081,95.4912 308.081,93.3245 308.5,90.5C 306.208,90.7564 304.041,90.4231 302,89.5C 300.13,90.7435 297.964,91.4101 295.5,91.5C 288.903,89.7311 282.236,89.0644 275.5,89.5C 271.307,91.0658 266.974,91.7325 262.5,91.5C 262.281,90.325 262.614,89.325 263.5,88.5C 267.874,86.6432 272.207,84.8099 276.5,83C 271.761,81.8072 266.928,80.9738 262,80.5C 260.674,80.2451 259.674,79.5784 259,78.5C 253.904,82.5377 248.237,83.871 242,82.5C 238.284,83.7045 234.45,84.5378 230.5,85C 229.061,85.9906 228.061,87.324 227.5,89C 223.5,89.3333 219.5,89.6667 215.5,90C 219.957,91.9072 221.957,95.4072 221.5,100.5C 219.345,100.628 217.345,100.128 215.5,99C 214.167,97.6667 214.167,96.3333 215.5,95C 213.564,94.187 211.564,93.687 209.5,93.5C 209.5,94.8333 209.5,96.1667 209.5,97.5C 207.658,97.2767 205.825,96.9434 204,96.5C 202.393,96.7692 201.226,97.6026 200.5,99C 202.833,99.3333 205.167,99.6667 207.5,100C 209.942,102.323 211.942,104.823 213.5,107.5C 208.848,108.016 205.348,106.349 203,102.5C 200.708,108.837 196.208,111.004 189.5,109C 188.663,107.989 188.33,106.822 188.5,105.5C 191.665,106.036 194.331,105.203 196.5,103C 195.054,99.3596 194.721,95.693 195.5,92C 194.167,91.3333 192.833,91.3333 191.5,92C 190.522,93.9751 189.189,95.6418 187.5,97C 188.535,98.2737 189.702,99.4404 191,100.5C 191.684,101.784 191.517,102.951 190.5,104C 185.194,102.96 179.861,101.793 174.5,100.5C 174.523,103.121 173.189,104.455 170.5,104.5C 164.523,103.794 158.523,103.961 152.5,105C 148.844,107.498 144.844,109.164 140.5,110C 138.888,110.72 137.388,110.554 136,109.5C 134.108,110.617 133.275,112.284 133.5,114.5C 129.884,115.543 126.217,116.043 122.5,116C 120.009,112.876 117.175,110.043 114,107.5C 113.517,106.552 113.351,105.552 113.5,104.5C 118.157,105.496 122.824,106.496 127.5,107.5C 129.389,107.564 131.056,107.064 132.5,106C 128.39,104.778 124.39,103.278 120.5,101.5C 118.025,102.687 115.691,102.353 113.5,100.5C 111.664,101.028 109.997,101.694 108.5,102.5C 108.5,102.833 108.5,103.167 108.5,103.5C 107.245,101.359 105.578,100.693 103.5,101.5C 100.938,99.0272 98.2716,98.8605 95.5,101C 97.5,101.333 99.5,101.667 101.5,102C 100.692,102.308 100.025,102.808 99.5,103.5C 100.803,105.377 102.303,107.043 104,108.5C 104.808,110.579 104.641,112.579 103.5,114.5C 101.167,116.5 98.8333,118.5 96.5,120.5C 97.5271,122.024 99.0271,122.691 101,122.5C 104.281,121.035 107.781,120.368 111.5,120.5C 111.5,120.833 111.5,121.167 111.5,121.5C 110.903,121.735 110.57,122.235 110.5,123C 111.707,124.3 112.374,125.8 112.5,127.5C 110.508,127.328 108.842,127.995 107.5,129.5C 106.216,128.415 104.716,127.748 103,127.5C 101.027,127.309 99.5271,127.976 98.5,129.5C 100.418,129.788 102.418,130.788 104.5,132.5C 105.478,132.023 106.311,131.357 107,130.5C 108.319,132.25 108.819,134.25 108.5,136.5C 109.873,136.343 111.207,136.51 112.5,137C 108.935,137.687 105.602,138.854 102.5,140.5C 102.5,140.167 102.5,139.833 102.5,139.5C 103.774,138.811 103.774,137.977 102.5,137C 100.236,136.764 98.0693,136.264 96,135.5C 92.7396,137.105 92.9063,138.439 96.5,139.5C 97.3382,139.842 97.6716,140.508 97.5,141.5C 93.8726,142.443 90.0392,142.443 86,141.5C 80.6736,143.297 79.507,146.464 82.5,151C 85.6978,151.848 88.5311,153.348 91,155.5C 91.3988,155.272 91.5654,154.938 91.5,154.5C 93.6547,154.372 95.6547,154.872 97.5,156C 97.0426,156.414 96.7093,156.914 96.5,157.5C 98.7662,158.314 101.1,158.814 103.5,159C 100.854,159.497 98.1873,159.664 95.5,159.5C 95.189,158.522 94.5223,157.855 93.5,157.5C 92.0158,159.074 90.3492,160.407 88.5,161.5C 87.4173,162.365 87.2506,163.365 88,164.5C 89.3561,163.62 90.8561,163.286 92.5,163.5C 93.974,166.249 95.974,168.582 98.5,170.5C 97.7611,170.369 97.0944,170.536 96.5,171C 97.6405,171.741 97.6405,172.575 96.5,173.5C 96.8793,175.213 97.8793,176.213 99.5,176.5C 100.873,176.657 102.207,176.49 103.5,176C 105.175,174.291 106.842,172.624 108.5,171C 107.906,170.536 107.239,170.369 106.5,170.5C 106.5,170.167 106.5,169.833 106.5,169.5C 106.61,167.646 106.943,165.646 107.5,163.5C 111.217,160.261 115.05,159.928 119,162.5C 122.806,160.843 126.64,159.51 130.5,158.5C 131.584,156.294 131.751,157.627 131,162.5C 127.738,165.102 127.905,167.268 131.5,169C 135.123,170.156 138.789,171.156 142.5,172C 148.55,176.45 149.217,175.283 144.5,168.5C 145.833,166.5 147.167,164.5 148.5,162.5C 148.547,160.962 147.88,159.962 146.5,159.5C 145.833,159.5 145.5,159.167 145.5,158.5C 150.152,158.998 154.819,159.331 159.5,159.5C 159.5,162.5 159.5,165.5 159.5,168.5C 158.448,168.351 157.448,168.517 156.5,169C 163.952,174.641 168.118,173.141 169,164.5C 170.737,162.375 172.904,161.542 175.5,162C 173.219,163.851 173.219,165.518 175.5,167C 174.833,169 173.5,170.333 171.5,171C 175.992,174.543 180.159,178.377 184,182.5C 185.833,179.5 187.667,176.5 189.5,173.5C 191.851,171.771 194.518,171.104 197.5,171.5C 197.579,172.93 197.246,174.264 196.5,175.5C 197.325,176.386 198.325,176.719 199.5,176.5C 199.285,178.179 199.952,179.179 201.5,179.5C 199.649,180.866 199.316,182.533 200.5,184.5C 201.757,186.97 203.257,189.303 205,191.5C 206.011,192.337 207.178,192.67 208.5,192.5C 206.137,194.002 203.97,193.668 202,191.5C 201.005,192.066 200.172,192.733 199.5,193.5C 196.276,194.719 193.61,196.719 191.5,199.5C 191.831,197.678 192.498,196.011 193.5,194.5C 194.638,191.696 194.805,188.696 194,185.5C 192.172,187.081 190.172,188.415 188,189.5C 185.861,188.231 183.695,188.231 181.5,189.5C 179.46,192.778 176.96,194.778 174,195.5C 173.535,190.198 170.702,186.865 165.5,185.5C 162.167,187.167 158.833,188.833 155.5,190.5C 151.557,188.89 148.557,186.223 146.5,182.5C 145.478,182.855 144.811,183.522 144.5,184.5C 143.022,184.238 141.689,184.571 140.5,185.5C 142.104,187.179 142.771,189.179 142.5,191.5C 137.633,190.533 135.466,192.533 136,197.5C 134.745,198.211 133.579,199.044 132.5,200C 136.261,201.763 139.428,204.263 142,207.5C 144.464,206.237 145.63,204.237 145.5,201.5C 145.833,201.5 146.167,201.5 146.5,201.5C 147.234,202.708 147.567,204.041 147.5,205.5C 151.917,205.082 154.417,207.082 155,211.5C 156.771,212.304 158.271,213.471 159.5,215C 161.179,215.395 162.845,215.228 164.5,214.5C 166.327,217.052 168.827,218.718 172,219.5C 173.092,218.704 174.259,218.037 175.5,217.5C 179.453,218.19 183.453,218.19 187.5,217.5C 187.085,219.948 188.085,221.281 190.5,221.5C 191.713,221.253 192.38,220.586 192.5,219.5C 193.708,220.234 195.041,220.567 196.5,220.5C 196.5,222.167 196.5,223.833 196.5,225.5C 198.467,225.261 200.301,225.594 202,226.5C 201.481,235.949 203.148,244.949 207,253.5C 207.246,250.11 207.746,246.777 208.5,243.5C 212.661,239.192 216.828,234.859 221,230.5C 222.591,228.073 223.425,225.407 223.5,222.5C 222.325,222.719 221.325,222.386 220.5,221.5C 220.04,218.844 219.04,216.51 217.5,214.5C 218.93,214.421 220.264,214.754 221.5,215.5C 222.386,214.675 222.719,213.675 222.5,212.5C 224.833,213.833 227.167,213.833 229.5,212.5C 232.022,213.071 234.688,213.071 237.5,212.5C 238.794,211.71 239.961,210.71 241,209.5C 241.399,209.728 241.565,210.062 241.5,210.5C 241.704,213.545 241.704,216.379 241.5,219C 243.757,222.238 244.09,225.738 242.5,229.5C 243.764,232.125 244.931,234.792 246,237.5C 247.673,233.15 247.506,228.817 245.5,224.5C 245.64,222.97 246.307,221.97 247.5,221.5C 247.119,223.942 247.786,224.609 249.5,223.5C 250.518,225.594 251.518,227.594 252.5,229.5C 252.369,230.239 252.536,230.906 253,231.5C 253.667,230.167 254.333,230.167 255,231.5C 255.41,230.099 255.91,228.766 256.5,227.5C 257.973,228.071 259.64,228.071 261.5,227.5C 259.863,229.124 260.197,230.124 262.5,230.5C 263.739,230.058 264.739,229.391 265.5,228.5C 265.5,229.167 265.833,229.5 266.5,229.5C 268.601,229.625 270.934,230.292 273.5,231.5C 276.322,230.851 278.155,229.185 279,226.5C 280.872,228.381 283.039,228.381 285.5,226.5C 289.284,222.223 292.45,217.556 295,212.5C 295.667,210.833 295.667,209.167 295,207.5C 294.086,208.654 293.253,208.487 292.5,207C 296.5,205.667 296.5,204.333 292.5,203C 293.167,202.667 293.833,202.333 294.5,202C 293.563,199.293 292.23,196.793 290.5,194.5C 291.701,192.091 293.367,190.091 295.5,188.5C 295.192,187.692 294.692,187.025 294,186.5C 292.867,188.211 291.367,188.711 289.5,188C 289.833,187.667 290.167,187.333 290.5,187C 288.137,186.411 287.137,184.911 287.5,182.5C 290.425,181.364 293.092,179.698 295.5,177.5C 297.394,178.601 298.061,179.934 297.5,181.5C 299.026,181.006 300.359,180.339 301.5,179.5C 301.833,179.5 302.167,179.5 302.5,179.5C 303.725,180.937 304.725,182.604 305.5,184.5C 306.08,182.363 307.08,180.53 308.5,179C 307.309,178.302 306.309,177.469 305.5,176.5C 305.842,175.662 306.508,175.328 307.5,175.5C 307.435,175.938 307.601,176.272 308,176.5C 309.547,174.113 311.713,172.78 314.5,172.5C 314.338,170.473 314.505,168.473 315,166.5C 315.77,165.402 316.603,165.402 317.5,166.5C 317.833,166.5 318.167,166.5 318.5,166.5C 315.813,168.511 315.98,170.178 319,171.5C 324.833,166.998 329.166,161.331 332,154.5C 332.626,151.137 332.959,147.804 333,144.5C 330.379,144.296 327.545,144.296 324.5,144.5C 324.5,143.5 324.5,142.5 324.5,141.5C 323.5,141.5 322.5,141.5 321.5,141.5C 321.33,140.178 321.663,139.011 322.5,138C 327.167,134.333 331.833,130.667 336.5,127C 342.179,126.627 347.845,126.127 353.5,125.5C 355.228,125.59 356.894,125.923 358.5,126.5C 361.022,124.144 363.688,121.977 366.5,120C 369.76,119.216 372.927,119.383 376,120.5C 378.196,117.875 381.03,116.875 384.5,117.5C 383.833,119.5 383.167,121.5 382.5,123.5C 386.074,122.976 389.574,122.976 393,123.5C 394.978,122.094 397.145,121.094 399.5,120.5C 399.5,213.5 399.5,306.5 399.5,399.5C 266.167,399.5 132.833,399.5 -0.5,399.5C -0.5,266.167 -0.5,132.833 -0.5,-0.5 Z"/></g>
<g><path style="opacity:1" fill="#649fca" d="M 399.5,100.5 C 399.5,100.833 399.5,101.167 399.5,101.5C 397.667,102.463 395.667,103.13 393.5,103.5C 387.538,101.836 381.538,101.503 375.5,102.5C 372.397,102.798 370.73,101.465 370.5,98.5C 365.223,98.1347 359.89,97.968 354.5,98C 352.321,96.8581 349.988,96.0248 347.5,95.5C 345.253,96.3742 342.92,96.7076 340.5,96.5C 340.5,95.5 340.5,94.5 340.5,93.5C 338.833,93.5 337.167,93.5 335.5,93.5C 335.5,94.5 335.5,95.5 335.5,96.5C 327.097,96.1766 318.764,96.6766 310.5,98C 308.081,96.4912 307.081,94.3245 307.5,91.5C 303.516,91.9275 299.516,92.2608 295.5,92.5C 288.88,90.8372 282.213,90.1705 275.5,90.5C 271.003,92.2171 266.337,92.8838 261.5,92.5C 261.215,90.712 261.548,89.0453 262.5,87.5C 266.167,86 269.833,84.5 273.5,83C 268.19,82.7882 263.023,81.9549 258,80.5C 255.893,82.3326 253.393,83.4993 250.5,84C 244.126,84.3107 237.793,84.9774 231.5,86C 230.061,86.9906 229.061,88.324 228.5,90C 225.833,90.3333 223.167,90.6667 220.5,91C 221.739,94.3642 222.406,97.8642 222.5,101.5C 219.68,101.752 217.014,101.252 214.5,100C 213.958,97.7452 212.791,95.9119 211,94.5C 210.801,96.4025 209.967,97.9025 208.5,99C 209.693,101.027 211.36,102.527 213.5,103.5C 214.452,105.045 214.785,106.712 214.5,108.5C 210.785,108.804 207.285,108.137 204,106.5C 199.494,110.242 194.327,111.409 188.5,110C 187.91,108.491 187.244,106.991 186.5,105.5C 182.951,103.762 179.284,102.429 175.5,101.5C 175.64,103.124 174.973,104.29 173.5,105C 166.867,104.645 160.2,104.978 153.5,106C 151.382,106.26 149.716,107.26 148.5,109C 144.013,110.623 139.347,111.456 134.5,111.5C 134.5,112.833 134.5,114.167 134.5,115.5C 131.47,115.908 128.47,116.574 125.5,117.5C 120.995,117.833 118.161,115.833 117,111.5C 113.168,110.164 111.668,107.497 112.5,103.5C 113.552,103.649 114.552,103.483 115.5,103C 113.19,102.503 110.857,102.337 108.5,102.5C 109.997,101.694 111.664,101.028 113.5,100.5C 115.691,102.353 118.025,102.687 120.5,101.5C 124.39,103.278 128.39,104.778 132.5,106C 131.056,107.064 129.389,107.564 127.5,107.5C 122.824,106.496 118.157,105.496 113.5,104.5C 113.351,105.552 113.517,106.552 114,107.5C 117.175,110.043 120.009,112.876 122.5,116C 126.217,116.043 129.884,115.543 133.5,114.5C 133.275,112.284 134.108,110.617 136,109.5C 137.388,110.554 138.888,110.72 140.5,110C 144.844,109.164 148.844,107.498 152.5,105C 158.523,103.961 164.523,103.794 170.5,104.5C 173.189,104.455 174.523,103.121 174.5,100.5C 179.861,101.793 185.194,102.96 190.5,104C 191.517,102.951 191.684,101.784 191,100.5C 189.702,99.4404 188.535,98.2737 187.5,97C 189.189,95.6418 190.522,93.9751 191.5,92C 192.833,91.3333 194.167,91.3333 195.5,92C 194.721,95.693 195.054,99.3596 196.5,103C 194.331,105.203 191.665,106.036 188.5,105.5C 188.33,106.822 188.663,107.989 189.5,109C 196.208,111.004 200.708,108.837 203,102.5C 205.348,106.349 208.848,108.016 213.5,107.5C 211.942,104.823 209.942,102.323 207.5,100C 205.167,99.6667 202.833,99.3333 200.5,99C 201.226,97.6026 202.393,96.7692 204,96.5C 205.825,96.9434 207.658,97.2767 209.5,97.5C 209.5,96.1667 209.5,94.8333 209.5,93.5C 211.564,93.687 213.564,94.187 215.5,95C 214.167,96.3333 214.167,97.6667 215.5,99C 217.345,100.128 219.345,100.628 221.5,100.5C 221.957,95.4072 219.957,91.9072 215.5,90C 219.5,89.6667 223.5,89.3333 227.5,89C 228.061,87.324 229.061,85.9906 230.5,85C 234.45,84.5378 238.284,83.7045 242,82.5C 248.237,83.871 253.904,82.5377 259,78.5C 259.674,79.5784 260.674,80.2451 262,80.5C 266.928,80.9738 271.761,81.8072 276.5,83C 272.207,84.8099 267.874,86.6432 263.5,88.5C 262.614,89.325 262.281,90.325 262.5,91.5C 266.974,91.7325 271.307,91.0658 275.5,89.5C 282.236,89.0644 288.903,89.7311 295.5,91.5C 297.964,91.4101 300.13,90.7435 302,89.5C 304.041,90.4231 306.208,90.7564 308.5,90.5C 308.081,93.3245 309.081,95.4912 311.5,97C 319.101,95.6392 326.768,95.1392 334.5,95.5C 334.5,94.5 334.5,93.5 334.5,92.5C 336.833,92.5 339.167,92.5 341.5,92.5C 341.5,93.5 341.5,94.5 341.5,95.5C 344.049,95.6126 346.382,94.9459 348.5,93.5C 350.721,94.9525 353.054,96.1192 355.5,97C 360.864,96.6036 366.197,96.7702 371.5,97.5C 371.281,98.675 371.614,99.675 372.5,100.5C 375.441,101.362 378.441,101.362 381.5,100.5C 386.473,101.428 391.473,102.095 396.5,102.5C 396.351,101.448 396.517,100.448 397,99.5C 397.671,100.252 398.504,100.586 399.5,100.5 Z"/></g>
<g><path style="opacity:1" fill="#3282bd" d="M 399.5,101.5 C 399.5,107.5 399.5,113.5 399.5,119.5C 396.901,119.549 394.734,120.549 393,122.5C 390.56,121.344 388.06,121.344 385.5,122.5C 384.833,122.333 384.167,122.167 383.5,122C 385.192,120.599 385.859,118.766 385.5,116.5C 378.998,117.777 372.331,118.61 365.5,119C 363.208,120.29 361.208,121.957 359.5,124C 351.509,124.769 343.509,125.435 335.5,126C 330.576,129.713 325.742,133.546 321,137.5C 320.506,139.134 320.34,140.801 320.5,142.5C 321.5,142.5 322.5,142.5 323.5,142.5C 323.5,143.5 323.5,144.5 323.5,145.5C 326.518,145.335 329.518,145.502 332.5,146C 330.786,154.752 326.786,162.419 320.5,169C 319.833,169.667 319.167,169.667 318.5,169C 319.337,167.989 319.67,166.822 319.5,165.5C 319.796,163.597 320.463,161.93 321.5,160.5C 322.404,159.791 322.737,158.791 322.5,157.5C 321.209,157.263 320.209,157.596 319.5,158.5C 317.621,159.341 315.621,159.675 313.5,159.5C 313.649,158.448 313.483,157.448 313,156.5C 311.22,155.406 309.386,154.406 307.5,153.5C 306.26,150.607 304.926,147.773 303.5,145C 302.128,144.598 300.795,144.098 299.5,143.5C 297.678,143.463 295.678,143.796 293.5,144.5C 293.125,145.793 292.792,147.126 292.5,148.5C 292.371,151.87 290.705,153.87 287.5,154.5C 286.828,153.733 285.995,153.066 285,152.5C 283.75,153.573 282.416,153.573 281,152.5C 278.545,153.952 275.878,154.952 273,155.5C 269.667,154.167 266.333,152.833 263,151.5C 259.769,153.09 257.269,152.257 255.5,149C 250.281,146.306 247.614,147.639 247.5,153C 245.82,153.034 244.32,153.201 243,153.5C 241.316,151.934 239.316,150.934 237,150.5C 233.519,151.821 230.352,153.488 227.5,155.5C 227.167,155.5 226.833,155.5 226.5,155.5C 224.296,155.23 222.296,153.897 220.5,151.5C 218.187,150.727 215.854,150.06 213.5,149.5C 212.914,149.709 212.414,150.043 212,150.5C 210.439,147.217 208.273,144.383 205.5,142C 203.331,141.571 201.331,142.071 199.5,143.5C 198.304,143.154 198.304,142.654 199.5,142C 197.866,141.506 196.199,141.34 194.5,141.5C 194.5,140.5 194.5,139.5 194.5,138.5C 187.534,139.657 180.534,140.657 173.5,141.5C 173.683,143.936 173.016,146.103 171.5,148C 172.328,148.915 173.328,149.581 174.5,150C 174,150.5 173.5,151 173,151.5C 170.814,151.7 168.647,151.033 166.5,149.5C 164.971,149.529 163.804,150.196 163,151.5C 157.105,146.986 152.105,147.653 148,153.5C 147.309,151.109 146.309,151.109 145,153.5C 144.22,155.387 144.387,157.054 145.5,158.5C 145.5,159.167 145.833,159.5 146.5,159.5C 147.615,162.313 146.782,164.647 144,166.5C 143.51,167.793 143.343,169.127 143.5,170.5C 139.737,170.143 136.07,169.31 132.5,168C 131.643,167.311 130.977,166.478 130.5,165.5C 133.29,161.304 133.123,157.304 130,153.5C 129.51,154.793 129.343,156.127 129.5,157.5C 125.875,158.322 122.375,159.656 119,161.5C 118.5,161 118,160.5 117.5,160C 114.805,159.746 112.305,159.579 110,159.5C 109.3,161.032 108.134,162.032 106.5,162.5C 105.526,164.743 105.192,167.076 105.5,169.5C 103.236,170.219 100.903,170.552 98.5,170.5C 95.974,168.582 93.974,166.249 92.5,163.5C 94.2624,162.738 95.2624,161.404 95.5,159.5C 98.1873,159.664 100.854,159.497 103.5,159C 101.1,158.814 98.7662,158.314 96.5,157.5C 96.7093,156.914 97.0426,156.414 97.5,156C 95.6547,154.872 93.6547,154.372 91.5,154.5C 89.3511,152.254 86.6844,150.754 83.5,150C 80.8415,147.614 81.1749,145.614 84.5,144C 89.184,143.565 93.8507,143.065 98.5,142.5C 99.8333,142.167 101.167,141.833 102.5,141.5C 105.435,140.886 108.268,139.886 111,138.5C 111.945,138.905 112.612,139.572 113,140.5C 113.494,138.866 113.66,137.199 113.5,135.5C 112.167,135.5 110.833,135.5 109.5,135.5C 109.5,133.167 109.5,130.833 109.5,128.5C 110.833,128.5 112.167,128.5 113.5,128.5C 113.532,125.924 112.865,123.591 111.5,121.5C 111.5,121.167 111.5,120.833 111.5,120.5C 112.812,119.855 113.812,118.855 114.5,117.5C 112.01,114.037 110.344,110.537 109.5,107C 112.159,105.134 111.826,103.967 108.5,103.5C 108.5,103.167 108.5,102.833 108.5,102.5C 110.857,102.337 113.19,102.503 115.5,103C 114.552,103.483 113.552,103.649 112.5,103.5C 111.668,107.497 113.168,110.164 117,111.5C 118.161,115.833 120.995,117.833 125.5,117.5C 128.47,116.574 131.47,115.908 134.5,115.5C 134.5,114.167 134.5,112.833 134.5,111.5C 139.347,111.456 144.013,110.623 148.5,109C 149.716,107.26 151.382,106.26 153.5,106C 160.2,104.978 166.867,104.645 173.5,105C 174.973,104.29 175.64,103.124 175.5,101.5C 179.284,102.429 182.951,103.762 186.5,105.5C 187.244,106.991 187.91,108.491 188.5,110C 194.327,111.409 199.494,110.242 204,106.5C 207.285,108.137 210.785,108.804 214.5,108.5C 214.785,106.712 214.452,105.045 213.5,103.5C 211.36,102.527 209.693,101.027 208.5,99C 209.967,97.9025 210.801,96.4025 211,94.5C 212.791,95.9119 213.958,97.7452 214.5,100C 217.014,101.252 219.68,101.752 222.5,101.5C 222.406,97.8642 221.739,94.3642 220.5,91C 223.167,90.6667 225.833,90.3333 228.5,90C 229.061,88.324 230.061,86.9906 231.5,86C 237.793,84.9774 244.126,84.3107 250.5,84C 253.393,83.4993 255.893,82.3326 258,80.5C 263.023,81.9549 268.19,82.7882 273.5,83C 269.833,84.5 266.167,86 262.5,87.5C 261.548,89.0453 261.215,90.712 261.5,92.5C 266.337,92.8838 271.003,92.2171 275.5,90.5C 282.213,90.1705 288.88,90.8372 295.5,92.5C 299.516,92.2608 303.516,91.9275 307.5,91.5C 307.081,94.3245 308.081,96.4912 310.5,98C 318.764,96.6766 327.097,96.1766 335.5,96.5C 335.5,95.5 335.5,94.5 335.5,93.5C 337.167,93.5 338.833,93.5 340.5,93.5C 340.5,94.5 340.5,95.5 340.5,96.5C 342.92,96.7076 345.253,96.3742 347.5,95.5C 349.988,96.0248 352.321,96.8581 354.5,98C 359.89,97.968 365.223,98.1347 370.5,98.5C 370.73,101.465 372.397,102.798 375.5,102.5C 381.538,101.503 387.538,101.836 393.5,103.5C 395.667,103.13 397.667,102.463 399.5,101.5 Z"/></g>
<g><path style="opacity:1" fill="#75b1d7" d="M 108.5,103.5 C 111.826,103.967 112.159,105.134 109.5,107C 110.344,110.537 112.01,114.037 114.5,117.5C 113.812,118.855 112.812,119.855 111.5,120.5C 107.781,120.368 104.281,121.035 101,122.5C 99.0271,122.691 97.5271,122.024 96.5,120.5C 98.8333,118.5 101.167,116.5 103.5,114.5C 104.641,112.579 104.808,110.579 104,108.5C 102.303,107.043 100.803,105.377 99.5,103.5C 100.025,102.808 100.692,102.308 101.5,102C 99.5,101.667 97.5,101.333 95.5,101C 98.2716,98.8605 100.938,99.0272 103.5,101.5C 105.578,100.693 107.245,101.359 108.5,103.5 Z"/></g>
<g><path style="opacity:1" fill="#68a9d3" d="M 93.5,103.5 C 95.9118,103.694 96.9118,105.027 96.5,107.5C 92.71,106.953 90.71,108.62 90.5,112.5C 83.8284,114.523 81.4951,118.856 83.5,125.5C 82.081,127.958 81.081,130.625 80.5,133.5C 78.8662,133.032 77.6995,132.032 77,130.5C 76.6667,127.833 76.3333,125.167 76,122.5C 75.601,126.321 74.2676,126.988 72,124.5C 69.7754,125.939 67.7754,127.606 66,129.5C 65.5,129.333 65,129.167 64.5,129C 66.4947,126.152 67.828,122.986 68.5,119.5C 71.4374,116.552 73.9374,116.885 76,120.5C 76.346,118.782 76.846,117.115 77.5,115.5C 76.9747,114.808 76.3081,114.308 75.5,114C 77.7443,111.651 78.9109,112.151 79,115.5C 80.3767,113.246 81.8767,111.08 83.5,109C 86.7038,106.674 90.0372,104.841 93.5,103.5 Z"/></g>
<g><path style="opacity:1" fill="#8faecc" d="M 17.5,108.5 C 23.7869,111.364 23.1202,113.364 15.5,114.5C 15.2587,112.114 15.9254,110.114 17.5,108.5 Z"/></g>
<g><path style="opacity:1" fill="#08509c" d="M 16.5,110.5 C 21.367,111.168 21.5337,112.168 17,113.5C 16.5172,112.552 16.3505,111.552 16.5,110.5 Z"/></g>
<g><path style="opacity:1" fill="#68a2cc" d="M 399.5,119.5 C 399.5,119.833 399.5,120.167 399.5,120.5C 397.145,121.094 394.978,122.094 393,123.5C 389.574,122.976 386.074,122.976 382.5,123.5C 383.167,121.5 383.833,119.5 384.5,117.5C 381.03,116.875 378.196,117.875 376,120.5C 372.927,119.383 369.76,119.216 366.5,120C 363.688,121.977 361.022,124.144 358.5,126.5C 356.894,125.923 355.228,125.59 353.5,125.5C 347.845,126.127 342.179,126.627 336.5,127C 331.833,130.667 327.167,134.333 322.5,138C 321.663,139.011 321.33,140.178 321.5,141.5C 322.5,141.5 323.5,141.5 324.5,141.5C 324.5,142.5 324.5,143.5 324.5,144.5C 327.545,144.296 330.379,144.296 333,144.5C 332.959,147.804 332.626,151.137 332,154.5C 329.166,161.331 324.833,166.998 319,171.5C 315.98,170.178 315.813,168.511 318.5,166.5C 318.5,165.833 318.833,165.5 319.5,165.5C 319.67,166.822 319.337,167.989 318.5,169C 319.167,169.667 319.833,169.667 320.5,169C 326.786,162.419 330.786,154.752 332.5,146C 329.518,145.502 326.518,145.335 323.5,145.5C 323.5,144.5 323.5,143.5 323.5,142.5C 322.5,142.5 321.5,142.5 320.5,142.5C 320.34,140.801 320.506,139.134 321,137.5C 325.742,133.546 330.576,129.713 335.5,126C 343.509,125.435 351.509,124.769 359.5,124C 361.208,121.957 363.208,120.29 365.5,119C 372.331,118.61 378.998,117.777 385.5,116.5C 385.859,118.766 385.192,120.599 383.5,122C 384.167,122.167 384.833,122.333 385.5,122.5C 388.06,121.344 390.56,121.344 393,122.5C 394.734,120.549 396.901,119.549 399.5,119.5 Z"/></g>
<g><path style="opacity:1" fill="#68a2cc" d="M 374.5,128.5 C 376.765,128.441 377.098,129.274 375.5,131C 375.759,132.261 376.426,133.261 377.5,134C 375.845,135.444 375.178,137.278 375.5,139.5C 372.5,139.167 371.167,140.5 371.5,143.5C 370.5,143.5 369.5,143.5 368.5,143.5C 368.649,144.552 368.483,145.552 368,146.5C 366.068,143.436 365.401,140.102 366,136.5C 369.003,133.933 371.836,131.266 374.5,128.5 Z"/></g>
<g><path style="opacity:1" fill="#3182bd" d="M 373.5,131.5 C 374.267,132.172 374.934,133.005 375.5,134C 374.62,135.356 374.286,136.856 374.5,138.5C 371.5,138.167 370.167,139.5 370.5,142.5C 368.151,142.542 366.818,141.375 366.5,139C 368.348,135.987 370.682,133.487 373.5,131.5 Z"/></g>
<g><path style="opacity:1" fill="#8faecc" d="M 102.5,139.5 C 101.866,138.053 100.699,137.387 99,137.5C 97.6244,137.684 96.7911,138.351 96.5,139.5C 92.9063,138.439 92.7396,137.105 96,135.5C 98.0693,136.264 100.236,136.764 102.5,137C 103.774,137.977 103.774,138.811 102.5,139.5 Z"/></g>
<g><path style="opacity:1" fill="#11559e" d="M 102.5,139.5 C 102.5,139.833 102.5,140.167 102.5,140.5C 102.5,140.833 102.5,141.167 102.5,141.5C 101.167,141.833 99.8333,142.167 98.5,142.5C 98.5,141.833 98.1667,141.5 97.5,141.5C 97.6716,140.508 97.3382,139.842 96.5,139.5C 96.7911,138.351 97.6244,137.684 99,137.5C 100.699,137.387 101.866,138.053 102.5,139.5 Z"/></g>
<g><path style="opacity:1" fill="#7fabd0" d="M 111.5,121.5 C 112.865,123.591 113.532,125.924 113.5,128.5C 112.167,128.5 110.833,128.5 109.5,128.5C 109.5,130.833 109.5,133.167 109.5,135.5C 110.833,135.5 112.167,135.5 113.5,135.5C 113.66,137.199 113.494,138.866 113,140.5C 112.612,139.572 111.945,138.905 111,138.5C 108.268,139.886 105.435,140.886 102.5,141.5C 102.5,141.167 102.5,140.833 102.5,140.5C 105.602,138.854 108.935,137.687 112.5,137C 111.207,136.51 109.873,136.343 108.5,136.5C 108.819,134.25 108.319,132.25 107,130.5C 106.311,131.357 105.478,132.023 104.5,132.5C 102.418,130.788 100.418,129.788 98.5,129.5C 99.5271,127.976 101.027,127.309 103,127.5C 104.716,127.748 106.216,128.415 107.5,129.5C 108.842,127.995 110.508,127.328 112.5,127.5C 112.374,125.8 111.707,124.3 110.5,123C 110.57,122.235 110.903,121.735 111.5,121.5 Z"/></g>
<g><path style="opacity:1" fill="#08509c" d="M 101.5,129.5 C 102.708,128.218 104.042,128.218 105.5,129.5C 104.3,130.292 102.967,130.292 101.5,129.5 Z"/></g>
<g><path style="opacity:1" fill="#c1d9e8" d="M 226.5,155.5 C 224.511,157.467 223.011,159.8 222,162.5C 220.644,161.62 219.144,161.286 217.5,161.5C 217.034,163.201 217.034,164.701 217.5,166C 215.833,166.333 214.167,166.667 212.5,167C 213.777,169.604 213.61,172.437 212,175.5C 208.742,178.188 205.242,179.521 201.5,179.5C 199.952,179.179 199.285,178.179 199.5,176.5C 198.325,176.719 197.325,176.386 196.5,175.5C 197.246,174.264 197.579,172.93 197.5,171.5C 194.518,171.104 191.851,171.771 189.5,173.5C 187.667,176.5 185.833,179.5 184,182.5C 180.159,178.377 175.992,174.543 171.5,171C 173.5,170.333 174.833,169 175.5,167C 173.219,165.518 173.219,163.851 175.5,162C 172.904,161.542 170.737,162.375 169,164.5C 168.118,173.141 163.952,174.641 156.5,169C 157.448,168.517 158.448,168.351 159.5,168.5C 159.5,165.5 159.5,162.5 159.5,159.5C 154.819,159.331 150.152,158.998 145.5,158.5C 144.387,157.054 144.22,155.387 145,153.5C 146.309,151.109 147.309,151.109 148,153.5C 152.105,147.653 157.105,146.986 163,151.5C 163.804,150.196 164.971,149.529 166.5,149.5C 168.647,151.033 170.814,151.7 173,151.5C 173.5,151 174,150.5 174.5,150C 173.328,149.581 172.328,148.915 171.5,148C 173.016,146.103 173.683,143.936 173.5,141.5C 180.534,140.657 187.534,139.657 194.5,138.5C 194.5,139.5 194.5,140.5 194.5,141.5C 196.199,141.34 197.866,141.506 199.5,142C 198.304,142.654 198.304,143.154 199.5,143.5C 201.331,142.071 203.331,141.571 205.5,142C 208.273,144.383 210.439,147.217 212,150.5C 212.414,150.043 212.914,149.709 213.5,149.5C 215.854,150.06 218.187,150.727 220.5,151.5C 222.296,153.897 224.296,155.23 226.5,155.5 Z"/></g>
<g><path style="opacity:1" fill="#6ba3cc" d="M 97.5,141.5 C 98.1667,141.5 98.5,141.833 98.5,142.5C 93.8507,143.065 89.184,143.565 84.5,144C 81.1749,145.614 80.8415,147.614 83.5,150C 86.6844,150.754 89.3511,152.254 91.5,154.5C 91.5654,154.938 91.3988,155.272 91,155.5C 88.5311,153.348 85.6978,151.848 82.5,151C 79.507,146.464 80.6736,143.297 86,141.5C 90.0392,142.443 93.8726,142.443 97.5,141.5 Z"/></g>
<g><path style="opacity:1" fill="#93b0ce" d="M 31.5,141.5 C 40.2033,142.92 40.5366,145.253 32.5,148.5C 31.3961,147.369 31.7295,146.535 33.5,146C 31.9632,144.89 31.2965,143.39 31.5,141.5 Z"/></g>
<g><path style="opacity:1" fill="#fefffe" d="M 114.5,141.5 C 115.289,141.783 115.956,142.283 116.5,143C 115.184,143.528 114.517,143.028 114.5,141.5 Z"/></g>
<g><path style="opacity:1" fill="#08509c" d="M 32.5,143.5 C 34.2632,142.666 35.9299,143.166 37.5,145C 36.5838,145.374 35.7504,145.874 35,146.5C 34.6232,145.058 33.7899,144.058 32.5,143.5 Z"/></g>
<g><path style="opacity:1" fill="#08519c" d="M 319.5,158.5 C 320.833,158.5 321.5,159.167 321.5,160.5C 320.463,161.93 319.796,163.597 319.5,165.5C 318.833,165.5 318.5,165.833 318.5,166.5C 318.167,166.5 317.833,166.5 317.5,166.5C 316.923,164.348 315.756,164.015 314,165.5C 313.505,167.473 313.338,169.473 313.5,171.5C 310.663,171.684 308.663,173.018 307.5,175.5C 306.508,175.328 305.842,175.662 305.5,176.5C 304.167,177.167 303.167,178.167 302.5,179.5C 302.167,179.5 301.833,179.5 301.5,179.5C 299.332,178.821 297.332,177.821 295.5,176.5C 292.624,178.437 289.624,180.104 286.5,181.5C 286.016,185.685 287.683,188.685 291.5,190.5C 290.389,191.611 289.722,192.945 289.5,194.5C 290.46,196.477 291.46,198.477 292.5,200.5C 290.913,202.446 291.246,203.946 293.5,205C 290.916,207.134 291.25,208.968 294.5,210.5C 291.895,215.968 288.562,220.968 284.5,225.5C 282.229,226.363 279.895,226.363 277.5,225.5C 277.64,227.124 276.973,228.29 275.5,229C 272.398,228.924 269.398,229.09 266.5,229.5C 265.833,229.5 265.5,229.167 265.5,228.5C 265.938,228.565 266.272,228.399 266.5,228C 265.069,227.535 263.903,226.701 263,225.5C 262.283,226.044 261.783,226.711 261.5,227.5C 259.64,228.071 257.973,228.071 256.5,227.5C 255.167,228.167 253.833,228.833 252.5,229.5C 251.518,227.594 250.518,225.594 249.5,223.5C 247.786,224.609 247.119,223.942 247.5,221.5C 249.974,218.813 250.141,215.813 248,212.5C 247.333,211.167 246.667,211.167 246,212.5C 245.751,211.376 245.251,210.376 244.5,209.5C 243.583,210.127 242.583,210.461 241.5,210.5C 241.565,210.062 241.399,209.728 241,209.5C 239.961,210.71 238.794,211.71 237.5,212.5C 234.672,211.503 232.005,211.503 229.5,212.5C 227.167,213.833 224.833,213.833 222.5,212.5C 222.158,211.662 221.492,211.328 220.5,211.5C 220.5,210.167 219.833,209.5 218.5,209.5C 217.625,207.194 216.292,206.527 214.5,207.5C 212.201,206.507 210.534,204.841 209.5,202.5C 211.542,201.497 211.875,200.163 210.5,198.5C 211.929,196.669 212.429,194.669 212,192.5C 210.708,191.209 209.542,191.209 208.5,192.5C 207.178,192.67 206.011,192.337 205,191.5C 203.257,189.303 201.757,186.97 200.5,184.5C 199.316,182.533 199.649,180.866 201.5,179.5C 205.242,179.521 208.742,178.188 212,175.5C 213.61,172.437 213.777,169.604 212.5,167C 214.167,166.667 215.833,166.333 217.5,166C 217.034,164.701 217.034,163.201 217.5,161.5C 219.144,161.286 220.644,161.62 222,162.5C 223.011,159.8 224.511,157.467 226.5,155.5C 226.833,155.5 227.167,155.5 227.5,155.5C 228.129,158.129 229.795,159.796 232.5,160.5C 233.106,162.709 233.773,164.876 234.5,167C 239.343,166.514 242.676,168.514 244.5,173C 250.746,173.055 256.746,174.222 262.5,176.5C 266.016,175.014 269.682,173.847 273.5,173C 275.616,171.829 276.282,170.329 275.5,168.5C 278.441,167.478 281.441,166.645 284.5,166C 286.128,163.35 288.295,162.517 291,163.5C 292.938,161.041 292.271,159.374 289,158.5C 287.108,159.672 285.608,159.172 284.5,157C 284.748,155.251 285.748,154.418 287.5,154.5C 290.705,153.87 292.371,151.87 292.5,148.5C 294.842,147.789 295.175,146.456 293.5,144.5C 295.678,143.796 297.678,143.463 299.5,143.5C 300.795,144.098 302.128,144.598 303.5,145C 304.926,147.773 306.26,150.607 307.5,153.5C 309.386,154.406 311.22,155.406 313,156.5C 313.483,157.448 313.649,158.448 313.5,159.5C 315.621,159.675 317.621,159.341 319.5,158.5 Z"/></g>
<g><path style="opacity:1" fill="#fefffe" d="M 98.5,144.5 C 99.7125,145.497 99.5458,146.497 98,147.5C 97.5304,146.423 97.6971,145.423 98.5,144.5 Z"/></g>
<g><path style="opacity:1" fill="#fefffe" d="M 293.5,144.5 C 295.175,146.456 294.842,147.789 292.5,148.5C 292.792,147.126 293.125,145.793 293.5,144.5 Z"/></g>
<g><path style="opacity:1" fill="#bcd7e6" d="M 72.5,146.5 C 74.2554,147.072 75.9221,147.906 77.5,149C 76.2068,149.49 74.8734,149.657 73.5,149.5C 73.3941,155.909 71.0608,156.909 66.5,152.5C 68.1795,150.03 70.1795,148.03 72.5,146.5 Z"/></g>
<g><path style="opacity:1" fill="#fefffe" d="M 121.5,150.5 C 119.775,150.157 119.275,149.157 120,147.5C 120.513,148.527 121.013,149.527 121.5,150.5 Z"/></g>
<g><path style="opacity:1" fill="#c3dae9" d="M 287.5,154.5 C 285.748,154.418 284.748,155.251 284.5,157C 285.608,159.172 287.108,159.672 289,158.5C 292.271,159.374 292.938,161.041 291,163.5C 288.295,162.517 286.128,163.35 284.5,166C 281.441,166.645 278.441,167.478 275.5,168.5C 276.282,170.329 275.616,171.829 273.5,173C 269.682,173.847 266.016,175.014 262.5,176.5C 256.746,174.222 250.746,173.055 244.5,173C 242.676,168.514 239.343,166.514 234.5,167C 233.773,164.876 233.106,162.709 232.5,160.5C 229.795,159.796 228.129,158.129 227.5,155.5C 230.352,153.488 233.519,151.821 237,150.5C 239.316,150.934 241.316,151.934 243,153.5C 244.32,153.201 245.82,153.034 247.5,153C 247.614,147.639 250.281,146.306 255.5,149C 257.269,152.257 259.769,153.09 263,151.5C 266.333,152.833 269.667,154.167 273,155.5C 275.878,154.952 278.545,153.952 281,152.5C 282.416,153.573 283.75,153.573 285,152.5C 285.995,153.066 286.828,153.733 287.5,154.5 Z"/></g>
<g><path style="opacity:1" fill="#fefffe" d="M 97.5,149.5 C 97.56,148.957 97.8933,148.624 98.5,148.5C 99.6139,149.723 99.7805,151.056 99,152.5C 98.7679,151.263 98.2679,150.263 97.5,149.5 Z"/></g>
<g><path style="opacity:1" fill="#fefffe" d="M 121.5,150.5 C 122.473,150.987 123.473,151.487 124.5,152C 122.843,152.725 121.843,152.225 121.5,150.5 Z"/></g>
<g><path style="opacity:1" fill="#6aa3cc" d="M 146.5,159.5 C 147.88,159.962 148.547,160.962 148.5,162.5C 147.167,164.5 145.833,166.5 144.5,168.5C 149.217,175.283 148.55,176.45 142.5,172C 138.789,171.156 135.123,170.156 131.5,169C 127.905,167.268 127.738,165.102 131,162.5C 131.751,157.627 131.584,156.294 130.5,158.5C 126.64,159.51 122.806,160.843 119,162.5C 115.05,159.928 111.217,160.261 107.5,163.5C 106.943,165.646 106.61,167.646 106.5,169.5C 106.167,169.5 105.833,169.5 105.5,169.5C 105.192,167.076 105.526,164.743 106.5,162.5C 108.134,162.032 109.3,161.032 110,159.5C 112.305,159.579 114.805,159.746 117.5,160C 118,160.5 118.5,161 119,161.5C 122.375,159.656 125.875,158.322 129.5,157.5C 129.343,156.127 129.51,154.793 130,153.5C 133.123,157.304 133.29,161.304 130.5,165.5C 130.977,166.478 131.643,167.311 132.5,168C 136.07,169.31 139.737,170.143 143.5,170.5C 143.343,169.127 143.51,167.793 144,166.5C 146.782,164.647 147.615,162.313 146.5,159.5 Z"/></g>
<g><path style="opacity:1" fill="#bcd7e6" d="M 58.5,156.5 C 59.5,156.5 60.5,156.5 61.5,156.5C 60.9492,159.807 60.6159,163.14 60.5,166.5C 58.2075,166.244 56.0408,166.577 54,167.5C 53.7744,164.905 53.2744,162.405 52.5,160C 54.7065,159.023 56.7065,157.857 58.5,156.5 Z"/></g>
<g><path style="opacity:1" fill="#7bb5d9" d="M 95.5,159.5 C 95.2624,161.404 94.2624,162.738 92.5,163.5C 90.8561,163.286 89.3561,163.62 88,164.5C 87.2506,163.365 87.4173,162.365 88.5,161.5C 90.3492,160.407 92.0158,159.074 93.5,157.5C 94.5223,157.855 95.189,158.522 95.5,159.5 Z"/></g>
<g><path style="opacity:1" fill="#fefffe" d="M 319.5,158.5 C 320.209,157.596 321.209,157.263 322.5,157.5C 322.737,158.791 322.404,159.791 321.5,160.5C 321.5,159.167 320.833,158.5 319.5,158.5 Z"/></g>
<g><path style="opacity:1" fill="#69a1cb" d="M 74.5,171.5 C 73.1634,170.685 72.1634,169.518 71.5,168C 69.0588,167.964 67.0588,167.131 65.5,165.5C 68.7974,164.386 72.1307,163.886 75.5,164C 74.565,166.381 74.2317,168.881 74.5,171.5 Z"/></g>
<g><path style="opacity:1" fill="#0f549d" d="M 85.5,164.5 C 88.3322,165.271 88.6655,165.938 86.5,166.5C 85.325,166.719 84.325,166.386 83.5,165.5C 83.9569,164.702 84.6236,164.369 85.5,164.5 Z"/></g>
<g><path style="opacity:1" fill="#8faecc" d="M 317.5,166.5 C 316.603,165.402 315.77,165.402 315,166.5C 314.505,168.473 314.338,170.473 314.5,172.5C 311.713,172.78 309.547,174.113 308,176.5C 307.601,176.272 307.435,175.938 307.5,175.5C 308.663,173.018 310.663,171.684 313.5,171.5C 313.338,169.473 313.505,167.473 314,165.5C 315.756,164.015 316.923,164.348 317.5,166.5 Z"/></g>
<g><path style="opacity:1" fill="#8faecc" d="M 336.5,166.5 C 338.509,168.169 340.509,169.836 342.5,171.5C 341.052,172.354 339.719,173.354 338.5,174.5C 336.885,173.846 335.218,173.346 333.5,173C 335.915,171.535 336.915,169.368 336.5,166.5 Z"/></g>
<g><path style="opacity:1" fill="#70a1cb" d="M 85.5,164.5 C 84.6236,164.369 83.9569,164.702 83.5,165.5C 84.325,166.386 85.325,166.719 86.5,166.5C 87.209,167.404 88.209,167.737 89.5,167.5C 89.6882,169.103 89.1882,170.437 88,171.5C 86.7574,169.167 85.0907,168.5 83,169.5C 82.044,168.421 81.2106,167.255 80.5,166C 81.6621,165.173 82.8288,164.34 84,163.5C 84.7648,163.57 85.2648,163.903 85.5,164.5 Z"/></g>
<g><path style="opacity:1" fill="#10549e" d="M 105.5,169.5 C 105.833,169.5 106.167,169.5 106.5,169.5C 106.5,169.833 106.5,170.167 106.5,170.5C 104.757,173.247 102.424,175.247 99.5,176.5C 97.8793,176.213 96.8793,175.213 96.5,173.5C 97.6405,172.575 97.6405,171.741 96.5,171C 97.0944,170.536 97.7611,170.369 98.5,170.5C 100.903,170.552 103.236,170.219 105.5,169.5 Z"/></g>
<g><path style="opacity:1" fill="#08509c" d="M 337.5,169.5 C 341.447,170.476 341.447,171.476 337.5,172.5C 336.913,171.767 336.913,170.767 337.5,169.5 Z"/></g>
<g><path style="opacity:1" fill="#8faecc" d="M 106.5,170.5 C 107.239,170.369 107.906,170.536 108.5,171C 106.842,172.624 105.175,174.291 103.5,176C 102.207,176.49 100.873,176.657 99.5,176.5C 102.424,175.247 104.757,173.247 106.5,170.5 Z"/></g>
<g><path style="opacity:1" fill="#68a2cc" d="M 74.5,171.5 C 76.6859,171.511 77.5192,172.511 77,174.5C 75.955,173.627 75.1217,172.627 74.5,171.5 Z"/></g>
<g><path style="opacity:1" fill="#8faecc" d="M 301.5,179.5 C 300.359,180.339 299.026,181.006 297.5,181.5C 298.061,179.934 297.394,178.601 295.5,177.5C 293.092,179.698 290.425,181.364 287.5,182.5C 287.137,184.911 288.137,186.411 290.5,187C 290.167,187.333 289.833,187.667 289.5,188C 291.367,188.711 292.867,188.211 294,186.5C 294.692,187.025 295.192,187.692 295.5,188.5C 293.367,190.091 291.701,192.091 290.5,194.5C 292.23,196.793 293.563,199.293 294.5,202C 293.833,202.333 293.167,202.667 292.5,203C 296.5,204.333 296.5,205.667 292.5,207C 293.253,208.487 294.086,208.654 295,207.5C 295.667,209.167 295.667,210.833 295,212.5C 292.45,217.556 289.284,222.223 285.5,226.5C 283.039,228.381 280.872,228.381 279,226.5C 278.155,229.185 276.322,230.851 273.5,231.5C 270.934,230.292 268.601,229.625 266.5,229.5C 269.398,229.09 272.398,228.924 275.5,229C 276.973,228.29 277.64,227.124 277.5,225.5C 279.895,226.363 282.229,226.363 284.5,225.5C 288.562,220.968 291.895,215.968 294.5,210.5C 291.25,208.968 290.916,207.134 293.5,205C 291.246,203.946 290.913,202.446 292.5,200.5C 291.46,198.477 290.46,196.477 289.5,194.5C 289.722,192.945 290.389,191.611 291.5,190.5C 287.683,188.685 286.016,185.685 286.5,181.5C 289.624,180.104 292.624,178.437 295.5,176.5C 297.332,177.821 299.332,178.821 301.5,179.5 Z"/></g>
<g><path style="opacity:1" fill="#7dacd1" d="M 305.5,176.5 C 306.309,177.469 307.309,178.302 308.5,179C 307.08,180.53 306.08,182.363 305.5,184.5C 304.725,182.604 303.725,180.937 302.5,179.5C 303.167,178.167 304.167,177.167 305.5,176.5 Z"/></g>
<g><path style="opacity:1" fill="#8eaccc" d="M 332.5,179.5 C 334.377,178.072 335.711,178.572 336.5,181C 335.123,184.212 334.123,187.546 333.5,191C 331.519,193.755 329.019,194.588 326,193.5C 325.529,195.246 324.862,196.913 324,198.5C 323.51,197.207 323.343,195.873 323.5,194.5C 321.418,194.472 319.584,195.139 318,196.5C 317.5,196 317,195.5 316.5,195C 318.75,193.348 321.083,192.848 323.5,193.5C 324.865,191.14 326.865,189.473 329.5,188.5C 332.093,185.732 333.093,182.732 332.5,179.5 Z"/></g>
<g><path style="opacity:1" fill="#bcd7e6" d="M 118.5,180.5 C 123.654,182.1 128.988,182.934 134.5,183C 128.229,184.163 121.895,184.996 115.5,185.5C 113.701,185.423 112.034,184.923 110.5,184C 113.374,183.058 116.04,181.891 118.5,180.5 Z"/></g>
<g><path style="opacity:1" fill="#3282bd" d="M 144.5,184.5 C 147.604,187.561 151.271,189.895 155.5,191.5C 158.903,190.927 161.903,189.594 164.5,187.5C 170.048,188.044 172.715,191.044 172.5,196.5C 174.564,196.313 176.564,195.813 178.5,195C 180.376,192.954 182.376,191.121 184.5,189.5C 187.347,190.891 190.013,190.557 192.5,188.5C 193.466,190.396 193.799,192.396 193.5,194.5C 192.498,196.011 191.831,197.678 191.5,199.5C 190.596,200.209 190.263,201.209 190.5,202.5C 186.534,202.993 183.867,205.159 182.5,209C 179.901,209.769 177.401,209.602 175,208.5C 175.484,211.198 176.317,213.865 177.5,216.5C 175.234,216.141 173.401,216.808 172,218.5C 169.87,217.859 168.37,216.526 167.5,214.5C 165.305,213.231 163.139,213.231 161,214.5C 159.622,212.787 157.955,211.453 156,210.5C 155.417,206.082 152.917,204.082 148.5,204.5C 148.715,202.821 148.048,201.821 146.5,201.5C 146.167,201.5 145.833,201.5 145.5,201.5C 144.763,199.695 143.763,198.029 142.5,196.5C 144.203,195.11 144.87,193.61 144.5,192C 143.906,191.536 143.239,191.369 142.5,191.5C 142.771,189.179 142.104,187.179 140.5,185.5C 141.689,184.571 143.022,184.238 144.5,184.5 Z"/></g>
<g><path style="opacity:1" fill="#69a2cc" d="M 193.5,194.5 C 193.799,192.396 193.466,190.396 192.5,188.5C 190.013,190.557 187.347,190.891 184.5,189.5C 182.376,191.121 180.376,192.954 178.5,195C 176.564,195.813 174.564,196.313 172.5,196.5C 172.715,191.044 170.048,188.044 164.5,187.5C 161.903,189.594 158.903,190.927 155.5,191.5C 151.271,189.895 147.604,187.561 144.5,184.5C 144.811,183.522 145.478,182.855 146.5,182.5C 148.557,186.223 151.557,188.89 155.5,190.5C 158.833,188.833 162.167,187.167 165.5,185.5C 170.702,186.865 173.535,190.198 174,195.5C 176.96,194.778 179.46,192.778 181.5,189.5C 183.695,188.231 185.861,188.231 188,189.5C 190.172,188.415 192.172,187.081 194,185.5C 194.805,188.696 194.638,191.696 193.5,194.5 Z"/></g>
<g><path style="opacity:1" fill="#08509c" d="M 332.5,185.5 C 333.678,189.348 332.178,192.015 328,193.5C 327.5,193 327,192.5 326.5,192C 329.733,190.901 331.733,188.735 332.5,185.5 Z"/></g>
<g><path style="opacity:1" fill="#70afd6" d="M 69.5,230.5 C 65.8137,233.308 62.147,235.974 58.5,238.5C 56.6214,238.607 56.2881,238.107 57.5,237C 52.365,231.935 47.0316,227.102 41.5,222.5C 40.3656,220.219 39.0322,220.219 37.5,222.5C 38.5621,231.449 39.5621,240.449 40.5,249.5C 35.9289,249.054 31.5956,249.72 27.5,251.5C 27.0618,251.565 26.7284,251.399 26.5,251C 27.1258,250.25 27.6258,249.416 28,248.5C 28.3333,248.833 28.6667,249.167 29,249.5C 32.459,248.867 35.959,248.2 39.5,247.5C 34.8804,246.507 30.2137,246.173 25.5,246.5C 25.6162,243.09 23.9496,241.756 20.5,242.5C 20.5,239.833 20.5,237.167 20.5,234.5C 22.5,234.5 24.5,234.5 26.5,234.5C 26.9452,231.635 26.2785,229.135 24.5,227C 26.0456,225.56 26.879,223.727 27,221.5C 29.3806,220.565 31.8806,220.232 34.5,220.5C 35.7442,215.892 33.7442,213.725 28.5,214C 29.6667,212.833 30.8333,211.667 32,210.5C 31.3708,205.091 33.3708,201.091 38,198.5C 38.6667,197.167 39.3333,195.833 40,194.5C 42.9736,195.082 45.4736,196.415 47.5,198.5C 49.0174,195.835 51.3507,194.002 54.5,193C 58.0894,192.793 61.5894,192.293 65,191.5C 66.233,193.422 66.3996,195.589 65.5,198C 66.3074,203.204 67.3074,208.37 68.5,213.5C 66.8953,218.204 67.562,222.537 70.5,226.5C 69.7542,227.736 69.4208,229.07 69.5,230.5 Z"/></g>
<g><path style="opacity:1" fill="#76b3d8" d="M 142.5,191.5 C 143.239,191.369 143.906,191.536 144.5,192C 144.87,193.61 144.203,195.11 142.5,196.5C 143.763,198.029 144.763,199.695 145.5,201.5C 145.63,204.237 144.464,206.237 142,207.5C 139.428,204.263 136.261,201.763 132.5,200C 133.579,199.044 134.745,198.211 136,197.5C 135.466,192.533 137.633,190.533 142.5,191.5 Z"/></g>
<g><path style="opacity:1" fill="#c0d9e8" d="M 208.5,192.5 C 209.542,191.209 210.708,191.209 212,192.5C 212.429,194.669 211.929,196.669 210.5,198.5C 211.875,200.163 211.542,201.497 209.5,202.5C 210.534,204.841 212.201,206.507 214.5,207.5C 213.016,208.473 212.516,209.807 213,211.5C 214.615,212.386 216.115,213.386 217.5,214.5C 219.04,216.51 220.04,218.844 220.5,221.5C 221.325,222.386 222.325,222.719 223.5,222.5C 223.425,225.407 222.591,228.073 221,230.5C 216.828,234.859 212.661,239.192 208.5,243.5C 207.746,246.777 207.246,250.11 207,253.5C 203.148,244.949 201.481,235.949 202,226.5C 200.301,225.594 198.467,225.261 196.5,225.5C 196.5,223.833 196.5,222.167 196.5,220.5C 195.041,220.567 193.708,220.234 192.5,219.5C 190.649,218.134 190.316,216.467 191.5,214.5C 192.991,213.756 194.491,213.09 196,212.5C 198.238,208.954 200.404,205.454 202.5,202C 198.521,200.259 197.521,197.425 199.5,193.5C 200.172,192.733 201.005,192.066 202,191.5C 203.97,193.668 206.137,194.002 208.5,192.5 Z"/></g>
<g><path style="opacity:1" fill="#72b0d6" d="M 199.5,193.5 C 197.521,197.425 198.521,200.259 202.5,202C 200.404,205.454 198.238,208.954 196,212.5C 194.491,213.09 192.991,213.756 191.5,214.5C 190.316,216.467 190.649,218.134 192.5,219.5C 192.38,220.586 191.713,221.253 190.5,221.5C 188.085,221.281 187.085,219.948 187.5,217.5C 183.453,218.19 179.453,218.19 175.5,217.5C 174.259,218.037 173.092,218.704 172,219.5C 168.827,218.718 166.327,217.052 164.5,214.5C 162.845,215.228 161.179,215.395 159.5,215C 158.271,213.471 156.771,212.304 155,211.5C 154.417,207.082 151.917,205.082 147.5,205.5C 147.567,204.041 147.234,202.708 146.5,201.5C 148.048,201.821 148.715,202.821 148.5,204.5C 152.917,204.082 155.417,206.082 156,210.5C 157.955,211.453 159.622,212.787 161,214.5C 163.139,213.231 165.305,213.231 167.5,214.5C 168.37,216.526 169.87,217.859 172,218.5C 173.401,216.808 175.234,216.141 177.5,216.5C 176.317,213.865 175.484,211.198 175,208.5C 177.401,209.602 179.901,209.769 182.5,209C 183.867,205.159 186.534,202.993 190.5,202.5C 190.263,201.209 190.596,200.209 191.5,199.5C 193.61,196.719 196.276,194.719 199.5,193.5 Z"/></g>
<g><path style="opacity:1" fill="#3182bd" d="M 47.5,198.5 C 47.4142,199.496 47.7476,200.329 48.5,201C 43.937,204.56 39.1037,207.727 34,210.5C 33.3333,208.5 33.3333,206.5 34,204.5C 36.067,201.891 38.2337,199.391 40.5,197C 42.9357,196.876 45.269,197.376 47.5,198.5 Z"/></g>
<g><path style="opacity:1" fill="#8faecc" d="M 313.5,197.5 C 317.145,198.885 317.478,200.885 314.5,203.5C 313.289,202.726 313.289,201.893 314.5,201C 312.627,200.047 312.294,198.88 313.5,197.5 Z"/></g>
<g><path style="opacity:1" fill="#8dabcb" d="M 127.5,199.5 C 128.478,199.811 129.145,200.478 129.5,201.5C 128.335,202.584 127.002,203.417 125.5,204C 126.782,206.79 125.948,208.957 123,210.5C 122.13,209.892 121.63,209.059 121.5,208C 121.978,205.774 122.645,203.608 123.5,201.5C 125.345,202.395 126.678,201.728 127.5,199.5 Z"/></g>
<g><path style="opacity:1" fill="#08509c" d="M 123.5,203.5 C 125.368,204.786 125.534,206.119 124,207.5C 123.51,206.207 123.343,204.873 123.5,203.5 Z"/></g>
<g><path style="opacity:1" fill="#518fc4" d="M 218.5,209.5 C 218.833,210.5 219.5,211.167 220.5,211.5C 221.492,211.328 222.158,211.662 222.5,212.5C 222.719,213.675 222.386,214.675 221.5,215.5C 220.264,214.754 218.93,214.421 217.5,214.5C 216.115,213.386 214.615,212.386 213,211.5C 212.516,209.807 213.016,208.473 214.5,207.5C 216.292,206.527 217.625,207.194 218.5,209.5 Z"/></g>
<g><path style="opacity:1" fill="#fefffe" d="M 218.5,209.5 C 219.833,209.5 220.5,210.167 220.5,211.5C 219.5,211.167 218.833,210.5 218.5,209.5 Z"/></g>
<g><path style="opacity:1" fill="#bcd7e6" d="M 105.5,210.5 C 107.833,210.5 110.167,210.5 112.5,210.5C 112.649,215.476 113.982,220.143 116.5,224.5C 112.893,225.489 109.226,225.823 105.5,225.5C 105.5,220.5 105.5,215.5 105.5,210.5 Z"/></g>
<g><path style="opacity:1" fill="#c5dbea" d="M 247.5,221.5 C 246.307,221.97 245.64,222.97 245.5,224.5C 247.506,228.817 247.673,233.15 246,237.5C 244.931,234.792 243.764,232.125 242.5,229.5C 244.09,225.738 243.757,222.238 241.5,219C 241.704,216.379 241.704,213.545 241.5,210.5C 242.583,210.461 243.583,210.127 244.5,209.5C 245.251,210.376 245.751,211.376 246,212.5C 246.667,211.167 247.333,211.167 248,212.5C 250.141,215.813 249.974,218.813 247.5,221.5 Z"/></g>
<g><path style="opacity:1" fill="#8faecc" d="M 237.5,212.5 C 234.688,213.071 232.022,213.071 229.5,212.5C 232.005,211.503 234.672,211.503 237.5,212.5 Z"/></g>
<g><path style="opacity:1" fill="#fefffe" d="M 41.5,222.5 C 40.1667,222.5 38.8333,222.5 37.5,222.5C 39.0322,220.219 40.3656,220.219 41.5,222.5 Z"/></g>
<g><path style="opacity:1" fill="#3182bd" d="M 37.5,222.5 C 38.8333,222.5 40.1667,222.5 41.5,222.5C 47.0316,227.102 52.365,231.935 57.5,237C 56.2881,238.107 56.6214,238.607 58.5,238.5C 59.5176,241.377 59.3509,244.377 58,247.5C 55.876,248.227 53.7094,248.894 51.5,249.5C 49.9686,248.579 48.6353,248.912 47.5,250.5C 46.8333,250.5 46.1667,250.5 45.5,250.5C 42.6655,251.069 40.9988,252.736 40.5,255.5C 39.5,255.5 38.5,255.5 37.5,255.5C 37.6495,256.552 37.4828,257.552 37,258.5C 35.3515,255.447 33.0182,254.447 30,255.5C 29.6232,254.058 28.7899,253.058 27.5,252.5C 27.5,252.167 27.5,251.833 27.5,251.5C 31.5956,249.72 35.9289,249.054 40.5,249.5C 39.5621,240.449 38.5621,231.449 37.5,222.5 Z"/></g>
<g><path style="opacity:1" fill="#8fbfdf" d="M 265.5,228.5 C 264.739,229.391 263.739,230.058 262.5,230.5C 260.197,230.124 259.863,229.124 261.5,227.5C 261.783,226.711 262.283,226.044 263,225.5C 263.903,226.701 265.069,227.535 266.5,228C 266.272,228.399 265.938,228.565 265.5,228.5 Z"/></g>
<g><path style="opacity:1" fill="#8faecc" d="M 123.5,251.5 C 122.383,247.476 123.383,243.976 126.5,241C 125.187,236.725 123.52,232.559 121.5,228.5C 121.435,228.062 121.601,227.728 122,227.5C 123.385,228.551 124.385,229.884 125,231.5C 125.134,234.872 125.968,238.039 127.5,241C 127.07,242.434 126.236,243.601 125,244.5C 124.23,247.153 123.73,249.486 123.5,251.5 Z"/></g>
<g><path style="opacity:1" fill="#8faecc" d="M 256.5,227.5 C 255.91,228.766 255.41,230.099 255,231.5C 254.333,230.167 253.667,230.167 253,231.5C 252.536,230.906 252.369,230.239 252.5,229.5C 253.833,228.833 255.167,228.167 256.5,227.5 Z"/></g>
<g><path style="opacity:1" fill="#71a6ce" d="M 96.5,249.5 C 96.7373,250.791 96.404,251.791 95.5,252.5C 95.838,247.814 96.0047,243.147 96,238.5C 92.0877,235.459 87.9211,232.792 83.5,230.5C 82.8933,230.624 82.56,230.957 82.5,231.5C 81.2625,230.257 81.5959,229.257 83.5,228.5C 88.136,231.304 92.636,234.304 97,237.5C 97.4973,241.524 97.3307,245.524 96.5,249.5 Z"/></g>
<g><path style="opacity:1" fill="#09519c" d="M 121.5,228.5 C 123.52,232.559 125.187,236.725 126.5,241C 123.383,243.976 122.383,247.476 123.5,251.5C 123.5,252.5 123.5,253.5 123.5,254.5C 123.5,254.833 123.5,255.167 123.5,255.5C 121.896,256.287 121.229,257.62 121.5,259.5C 119.896,260.287 119.229,261.62 119.5,263.5C 119.374,265.2 118.707,266.7 117.5,268C 119.478,270.147 120.811,272.647 121.5,275.5C 121.389,276.117 121.056,276.617 120.5,277C 122.025,278.009 123.692,278.509 125.5,278.5C 127.629,281.82 130.129,282.154 133,279.5C 133.5,279.833 134,280.167 134.5,280.5C 133.593,283.421 133.26,286.421 133.5,289.5C 133.5,290.167 133.5,290.833 133.5,291.5C 133.5,291.833 133.5,292.167 133.5,292.5C 131.721,295.747 129.721,298.747 127.5,301.5C 125.833,297.833 123.167,295.167 119.5,293.5C 119.347,290.423 120.014,287.589 121.5,285C 121.057,283.175 120.723,281.342 120.5,279.5C 117.881,279.232 115.381,279.565 113,280.5C 111.901,277.961 110.234,277.295 108,278.5C 105.961,273.746 102.961,269.746 99,266.5C 98.454,263.621 97.6206,260.954 96.5,258.5C 96.1667,256.5 95.8333,254.5 95.5,252.5C 96.404,251.791 96.7373,250.791 96.5,249.5C 97.1667,249.5 97.5,249.167 97.5,248.5C 98.5,248.5 99.5,248.5 100.5,248.5C 100.409,242.721 101.075,237.054 102.5,231.5C 108.026,231.821 113.36,231.488 118.5,230.5C 119.5,229.833 120.5,229.167 121.5,228.5 Z"/></g>
<g><path style="opacity:1" fill="#c2dae8" d="M 69.5,230.5 C 73.7253,231.774 78.0586,232.774 82.5,233.5C 82.6653,237.182 82.4986,240.848 82,244.5C 79.7132,247.072 78.5465,250.072 78.5,253.5C 73.9964,253.994 69.4964,254.661 65,255.5C 62.6809,251.561 60.5142,251.561 58.5,255.5C 57.1984,256.807 55.865,256.807 54.5,255.5C 53.3044,255.846 53.3044,256.346 54.5,257C 53.6667,257.167 52.8333,257.333 52,257.5C 49.8819,256.524 47.7152,255.69 45.5,255C 46.2666,253.53 46.9332,252.03 47.5,250.5C 48.6353,248.912 49.9686,248.579 51.5,249.5C 53.7094,248.894 55.876,248.227 58,247.5C 59.3509,244.377 59.5176,241.377 58.5,238.5C 62.147,235.974 65.8137,233.308 69.5,230.5 Z"/></g>
<g><path style="opacity:1" fill="#3382bd" d="M 95.5,252.5 C 95.8333,254.5 96.1667,256.5 96.5,258.5C 95.0406,262.297 92.3739,264.631 88.5,265.5C 88.5,266.5 88.5,267.5 88.5,268.5C 86.4028,268.997 84.5695,269.33 83,269.5C 82.2078,267.413 81.0412,265.579 79.5,264C 80.5,263.667 81.5,263.333 82.5,263C 81.7256,260.595 81.2256,258.095 81,255.5C 80.2917,254.619 79.4584,253.953 78.5,253.5C 78.5465,250.072 79.7132,247.072 82,244.5C 82.4986,240.848 82.6653,237.182 82.5,233.5C 82.5,232.833 82.5,232.167 82.5,231.5C 82.56,230.957 82.8933,230.624 83.5,230.5C 87.9211,232.792 92.0877,235.459 96,238.5C 96.0047,243.147 95.838,247.814 95.5,252.5 Z"/></g>
<g><path style="opacity:1" fill="#8faecc" d="M 118.5,230.5 C 113.36,231.488 108.026,231.821 102.5,231.5C 101.075,237.054 100.409,242.721 100.5,248.5C 99.5,248.5 98.5,248.5 97.5,248.5C 99.2494,242.707 100.583,236.707 101.5,230.5C 107.167,230.5 112.833,230.5 118.5,230.5 Z"/></g>
<g><path style="opacity:1" fill="#8faecc" d="M 272.5,235.5 C 273.239,235.369 273.906,235.536 274.5,236C 273.716,238.998 272.049,239.831 269.5,238.5C 270.34,237.265 271.34,236.265 272.5,235.5 Z"/></g>
<g><path style="opacity:1" fill="#87a5c8" d="M 293.5,239.5 C 294.496,239.414 295.329,239.748 296,240.5C 296.309,241.766 296.809,242.933 297.5,244C 296.257,245.154 295.257,246.488 294.5,248C 295.554,249.388 295.72,250.888 295,252.5C 294.415,250.871 293.581,249.371 292.5,248C 293.348,245.23 293.681,242.397 293.5,239.5 Z"/></g>
<g><path style="opacity:1" fill="#5a98c7" d="M 152.5,240.5 C 155.624,241.766 156.124,243.766 154,246.5C 149.281,249.174 144.615,251.841 140,254.5C 138.876,251.558 138.542,248.558 139,245.5C 139.333,245.167 139.667,244.833 140,244.5C 141.34,245.868 142.674,247.201 144,248.5C 146.698,245.634 149.531,242.967 152.5,240.5 Z"/></g>
<g><path style="opacity:1" fill="#68a2cc" d="M 45.5,250.5 C 44.657,252.173 43.3237,253.34 41.5,254C 42.8333,254.667 42.8333,255.333 41.5,256C 40.552,256.483 39.552,256.649 38.5,256.5C 38.5391,258.359 37.7058,259.692 36,260.5C 34.5334,256.806 32.0334,255.139 28.5,255.5C 28.0233,254.522 27.3567,253.689 26.5,253C 26.7284,252.601 27.0618,252.435 27.5,252.5C 28.7899,253.058 29.6232,254.058 30,255.5C 33.0182,254.447 35.3515,255.447 37,258.5C 37.4828,257.552 37.6495,256.552 37.5,255.5C 38.5,255.5 39.5,255.5 40.5,255.5C 40.9988,252.736 42.6655,251.069 45.5,250.5 Z"/></g>
<g><path style="opacity:1" fill="#08519c" d="M 78.5,253.5 C 78.821,254.817 79.1543,256.151 79.5,257.5C 77.8356,262.151 76.169,266.818 74.5,271.5C 71.054,270.239 69.054,271.572 68.5,275.5C 64.9304,277.421 62.5971,276.421 61.5,272.5C 59.9547,271.548 58.288,271.215 56.5,271.5C 56.5,270.5 56.5,269.5 56.5,268.5C 57.1667,265.833 57.8333,263.167 58.5,260.5C 58.5,258.833 58.5,257.167 58.5,255.5C 60.5142,251.561 62.6809,251.561 65,255.5C 69.4964,254.661 73.9964,253.994 78.5,253.5 Z"/></g>
<g><path style="opacity:1" fill="#68a2cc" d="M 133.5,291.5 C 133.5,290.833 133.5,290.167 133.5,289.5C 141.654,282.542 147.321,273.875 150.5,263.5C 146.345,263.233 142.179,263.899 138,265.5C 136.103,265.104 134.603,264.104 133.5,262.5C 133.743,254.366 130.41,252.032 123.5,255.5C 123.5,255.167 123.5,254.833 123.5,254.5C 130.846,250.471 134.513,252.805 134.5,261.5C 135.519,262.687 136.686,263.687 138,264.5C 142.305,263.172 146.638,261.839 151,260.5C 151.5,260.833 152,261.167 152.5,261.5C 149.359,273.617 143.025,283.617 133.5,291.5 Z"/></g>
<g><path style="opacity:1" fill="#78abd1" d="M 267.5,256.5 C 267.389,255.883 267.056,255.383 266.5,255C 257.227,251.996 256.227,253.496 263.5,259.5C 262.207,260.645 261.041,260.311 260,258.5C 258.441,256.783 257.608,254.783 257.5,252.5C 260.874,252.674 264.207,253.174 267.5,254C 268.795,255.821 268.795,256.655 267.5,256.5 Z"/></g>
<g><path style="opacity:1" fill="#3f87c0" d="M 133.5,289.5 C 133.26,286.421 133.593,283.421 134.5,280.5C 134,280.167 133.5,279.833 133,279.5C 130.129,282.154 127.629,281.82 125.5,278.5C 124.455,277.122 123.122,276.122 121.5,275.5C 120.811,272.647 119.478,270.147 117.5,268C 118.707,266.7 119.374,265.2 119.5,263.5C 120.674,262.486 121.34,261.153 121.5,259.5C 121.229,257.62 121.896,256.287 123.5,255.5C 130.41,252.032 133.743,254.366 133.5,262.5C 134.603,264.104 136.103,265.104 138,265.5C 142.179,263.899 146.345,263.233 150.5,263.5C 147.321,273.875 141.654,282.542 133.5,289.5 Z"/></g>
<g><path style="opacity:1" fill="#3182bd" d="M 267.5,256.5 C 265.596,256.738 264.262,257.738 263.5,259.5C 256.227,253.496 257.227,251.996 266.5,255C 267.056,255.383 267.389,255.883 267.5,256.5 Z"/></g>
<g><path style="opacity:1" fill="#609bc9" d="M 29.5,268.5 C 27.7274,267.686 27.2274,266.352 28,264.5C 29.2811,265.647 29.6144,265.313 29,263.5C 27.6667,262.167 26.3333,262.167 25,263.5C 24.3551,262.354 23.5217,261.354 22.5,260.5C 23.8532,259.476 24.5198,258.143 24.5,256.5C 27.1272,257.092 29.7938,257.425 32.5,257.5C 32.2924,259.92 32.6258,262.253 33.5,264.5C 31.9208,265.667 30.5875,267 29.5,268.5 Z"/></g>
<g><path style="opacity:1" fill="#73b2d8" d="M 58.5,260.5 C 57.8333,263.167 57.1667,265.833 56.5,268.5C 55.5489,267.081 55.2155,265.415 55.5,263.5C 53.8333,263.5 52.1667,263.5 50.5,263.5C 51.0815,267.315 50.2482,270.649 48,273.5C 48.6667,269.833 48.6667,266.167 48,262.5C 50.3875,262.469 52.8875,261.803 55.5,260.5C 56.2508,259.624 56.7508,258.624 57,257.5C 57.2321,258.737 57.7321,259.737 58.5,260.5 Z"/></g>
<g><path style="opacity:1" fill="#c4dbe9" d="M 78.5,253.5 C 79.4584,253.953 80.2917,254.619 81,255.5C 81.2256,258.095 81.7256,260.595 82.5,263C 81.5,263.333 80.5,263.667 79.5,264C 81.0412,265.579 82.2078,267.413 83,269.5C 84.5695,269.33 86.4028,268.997 88.5,268.5C 88.5,267.5 88.5,266.5 88.5,265.5C 92.3739,264.631 95.0406,262.297 96.5,258.5C 97.6206,260.954 98.454,263.621 99,266.5C 102.961,269.746 105.961,273.746 108,278.5C 110.234,277.295 111.901,277.961 113,280.5C 115.381,279.565 117.881,279.232 120.5,279.5C 120.723,281.342 121.057,283.175 121.5,285C 120.014,287.589 119.347,290.423 119.5,293.5C 117.143,293.337 114.81,293.503 112.5,294C 113.728,295.49 113.728,296.99 112.5,298.5C 111.5,298.5 110.5,298.5 109.5,298.5C 109.285,300.179 109.952,301.179 111.5,301.5C 110.631,303.717 110.298,306.05 110.5,308.5C 109.213,310.257 107.713,311.924 106,313.5C 105.667,315.833 105.333,318.167 105,320.5C 102.196,318.656 99.0297,317.989 95.5,318.5C 94.612,315.946 94.2786,313.279 94.5,310.5C 93.1779,310.67 92.0113,310.337 91,309.5C 90.5172,310.448 90.3505,311.448 90.5,312.5C 88.2188,312.923 86.5521,312.256 85.5,310.5C 86.6395,304.67 88.4728,299.003 91,293.5C 91.994,288.882 92.494,284.215 92.5,279.5C 93.8734,279.657 95.2068,279.49 96.5,279C 94.6972,277.738 93.3639,276.071 92.5,274C 88.7161,273.629 85.0494,274.129 81.5,275.5C 81.6567,274.127 81.49,272.793 81,271.5C 78.8349,273.653 78.0016,276.319 78.5,279.5C 77.325,279.719 76.325,279.386 75.5,278.5C 74.9169,276.998 74.0836,275.665 73,274.5C 72.7613,273.212 73.2613,272.212 74.5,271.5C 76.169,266.818 77.8356,262.151 79.5,257.5C 79.1543,256.151 78.821,254.817 78.5,253.5 Z"/></g>
<g><path style="opacity:1" fill="#fefffe" d="M 121.5,259.5 C 121.34,261.153 120.674,262.486 119.5,263.5C 119.229,261.62 119.896,260.287 121.5,259.5 Z"/></g>
<g><path style="opacity:1" fill="#83a1c7" d="M 212.5,264.5 C 213.961,266.352 214.961,268.518 215.5,271C 215.387,272.28 214.72,273.113 213.5,273.5C 212.304,272.441 211.637,271.107 211.5,269.5C 212.046,267.865 212.38,266.199 212.5,264.5 Z"/></g>
<g><path style="opacity:1" fill="#8faecc" d="M 303.5,264.5 C 304.139,265.097 304.472,265.93 304.5,267C 303.741,269.542 303.075,271.709 302.5,273.5C 301.5,273.167 300.833,272.5 300.5,271.5C 301.641,270.575 301.641,269.741 300.5,269C 302.141,267.871 303.141,266.371 303.5,264.5 Z"/></g>
<g><path style="opacity:1" fill="#7f9ec5" d="M 29.5,268.5 C 30.1174,268.389 30.6174,268.056 31,267.5C 32.182,269.938 33.5153,272.271 35,274.5C 35.7494,275.635 35.5827,276.635 34.5,277.5C 30.4157,275.508 28.7491,272.508 29.5,268.5 Z"/></g>
<g><path style="opacity:1" fill="#8faecc" d="M 56.5,271.5 C 58.288,271.215 59.9547,271.548 61.5,272.5C 62.5971,276.421 64.9304,277.421 68.5,275.5C 64.6449,280.065 61.9783,279.399 60.5,273.5C 59.0508,272.828 57.7175,272.161 56.5,271.5 Z"/></g>
<g><path style="opacity:1" fill="#fefffe" d="M 121.5,275.5 C 123.122,276.122 124.455,277.122 125.5,278.5C 123.692,278.509 122.025,278.009 120.5,277C 121.056,276.617 121.389,276.117 121.5,275.5 Z"/></g>
<g><path style="opacity:1" fill="#68a2cc" d="M 254.5,275.5 C 255.496,275.414 256.329,275.748 257,276.5C 257.667,278.5 257.667,280.5 257,282.5C 255.589,280.35 254.755,278.016 254.5,275.5 Z"/></g>
<g><path style="opacity:1" fill="#8caacb" d="M 243.5,276.5 C 244.978,276.238 246.311,276.571 247.5,277.5C 250.041,281.252 253.041,284.585 256.5,287.5C 258.546,291.902 261.212,295.735 264.5,299C 263.577,301.041 263.244,303.208 263.5,305.5C 261.339,305.174 259.506,304.174 258,302.5C 254.751,297.078 252.085,291.411 250,285.5C 247.802,282.403 245.636,279.403 243.5,276.5 Z"/></g>
<g><path style="opacity:1" fill="#88aacc" d="M 272.5,287.5 C 271.903,287.735 271.57,288.235 271.5,289C 273.111,291.21 273.778,293.71 273.5,296.5C 276.956,296.596 280.123,297.596 283,299.5C 283.893,295.102 285.059,290.768 286.5,286.5C 286.308,284.423 285.808,282.423 285,280.5C 283.955,281.373 283.122,282.373 282.5,283.5C 281.599,284.29 280.932,285.29 280.5,286.5C 279.038,287.471 277.705,287.138 276.5,285.5C 278.775,283.371 281.275,281.371 284,279.5C 284.471,277.754 285.138,276.087 286,274.5C 288.167,276 288,277.167 285.5,278C 287.335,278.928 287.668,280.094 286.5,281.5C 287.642,283.378 288.642,285.212 289.5,287C 287.621,289.821 285.954,292.654 284.5,295.5C 285.38,297.998 284.547,299.998 282,301.5C 280.856,299.083 279.19,298.416 277,299.5C 276.667,298.833 276.333,298.167 276,297.5C 275,298.833 274,298.833 273,297.5C 272.664,294.462 271.831,291.628 270.5,289C 270.833,288.167 271.167,287.333 271.5,286.5C 272.107,286.624 272.44,286.957 272.5,287.5 Z"/></g>
<g><path style="opacity:1" fill="#0c529c" d="M 272.5,287.5 C 272.56,288.043 272.893,288.376 273.5,288.5C 274.735,287.66 275.735,286.66 276.5,285.5C 277.705,287.138 279.038,287.471 280.5,286.5C 282.048,286.179 282.715,285.179 282.5,283.5C 283.122,282.373 283.955,281.373 285,280.5C 285.808,282.423 286.308,284.423 286.5,286.5C 285.059,290.768 283.893,295.102 283,299.5C 280.123,297.596 276.956,296.596 273.5,296.5C 273.778,293.71 273.111,291.21 271.5,289C 271.57,288.235 271.903,287.735 272.5,287.5 Z"/></g>
<g><path style="opacity:1" fill="#fefffe" d="M 282.5,283.5 C 282.715,285.179 282.048,286.179 280.5,286.5C 280.932,285.29 281.599,284.29 282.5,283.5 Z"/></g>
<g><path style="opacity:1" fill="#08509c" d="M 251.5,285.5 C 252.815,286.476 254.148,287.476 255.5,288.5C 257.169,292.138 259.169,295.472 261.5,298.5C 262.641,300.421 262.808,302.421 262,304.5C 256.935,299.038 253.435,292.704 251.5,285.5 Z"/></g>
<g><path style="opacity:1" fill="#8aa8ca" d="M 316.5,291.5 C 319.764,291.726 320.764,293.226 319.5,296C 317.813,295.807 316.479,294.807 315.5,293C 316.056,292.617 316.389,292.117 316.5,291.5 Z"/></g>
<g><path style="opacity:1" fill="#6eaed5" d="M 119.5,293.5 C 123.167,295.167 125.833,297.833 127.5,301.5C 126.925,303.076 126.592,304.742 126.5,306.5C 127.214,311.81 127.881,316.81 128.5,321.5C 131.555,325.471 131.888,329.804 129.5,334.5C 125.525,336.642 122.358,339.642 120,343.5C 119.465,346.827 119.965,349.994 121.5,353C 120.62,354.356 120.286,355.856 120.5,357.5C 119.178,357.33 118.011,357.663 117,358.5C 114.888,354.259 115.054,350.259 117.5,346.5C 115.974,350.047 116.307,353.381 118.5,356.5C 119.011,351.874 119.178,347.207 119,342.5C 120.802,341.211 121.969,339.544 122.5,337.5C 129.43,334.64 131.763,329.64 129.5,322.5C 127.5,322.5 125.5,322.5 123.5,322.5C 122.71,321.599 121.71,320.932 120.5,320.5C 120.5,319.833 120.5,319.167 120.5,318.5C 121.404,317.791 121.737,316.791 121.5,315.5C 119.692,315.509 118.025,315.009 116.5,314C 114.811,311.747 112.811,309.914 110.5,308.5C 110.298,306.05 110.631,303.717 111.5,301.5C 111.557,300.391 111.89,299.391 112.5,298.5C 113.728,296.99 113.728,295.49 112.5,294C 114.81,293.503 117.143,293.337 119.5,293.5 Z"/></g>
<g><path style="opacity:1" fill="#8dabcb" d="M 291.5,293.5 C 292.922,293.709 294.255,294.209 295.5,295C 295.167,295.333 294.833,295.667 294.5,296C 296.96,298.314 297.46,300.814 296,303.5C 293.589,295.922 292.255,296.589 292,305.5C 290.802,301.469 290.636,297.469 291.5,293.5 Z"/></g>
<g><path style="opacity:1" fill="#8faecc" d="M 334.5,298.5 C 332.278,298.822 330.444,298.155 329,296.5C 327.267,298.147 325.434,299.647 323.5,301C 327.661,301.382 330.328,303.549 331.5,307.5C 332.325,308.386 333.325,308.719 334.5,308.5C 334.662,310.527 334.495,312.527 334,314.5C 333.244,311.43 331.411,308.097 328.5,304.5C 325.144,303.652 322.477,301.818 320.5,299C 320.667,298.5 320.833,298 321,297.5C 321.689,298.357 322.522,299.023 323.5,299.5C 324.9,297.604 326.733,296.271 329,295.5C 330.858,296.606 332.692,297.606 334.5,298.5 Z"/></g>
<g><path style="opacity:1" fill="#09519c" d="M 334.5,298.5 C 334.5,298.833 334.5,299.167 334.5,299.5C 334.5,300.167 334.5,300.833 334.5,301.5C 334.5,303.5 334.5,305.5 334.5,307.5C 334.5,307.833 334.5,308.167 334.5,308.5C 333.325,308.719 332.325,308.386 331.5,307.5C 330.328,303.549 327.661,301.382 323.5,301C 325.434,299.647 327.267,298.147 329,296.5C 330.444,298.155 332.278,298.822 334.5,298.5 Z"/></g>
<g><path style="opacity:1" fill="#08509c" d="M 112.5,298.5 C 111.89,299.391 111.557,300.391 111.5,301.5C 109.952,301.179 109.285,300.179 109.5,298.5C 110.5,298.5 111.5,298.5 112.5,298.5 Z"/></g>
<g><path style="opacity:1" fill="#68a2cc" d="M 334.5,299.5 C 339.771,300.803 343.438,303.97 345.5,309C 345.167,309.5 344.833,310 344.5,310.5C 341.709,308.96 339.209,309.294 337,311.5C 336.764,309.881 335.931,308.881 334.5,308.5C 334.5,308.167 334.5,307.833 334.5,307.5C 337.469,308.329 340.469,308.495 343.5,308C 341.529,304.353 338.529,302.186 334.5,301.5C 334.5,300.833 334.5,300.167 334.5,299.5 Z"/></g>
<g><path style="opacity:1" fill="#bed2e1" d="M 133.5,292.5 C 133.414,293.496 133.748,294.329 134.5,295C 132.209,297.753 130.042,300.587 128,303.5C 127.623,309.195 128.456,314.695 130.5,320C 129.584,320.278 128.918,320.778 128.5,321.5C 127.881,316.81 127.214,311.81 126.5,306.5C 126.592,304.742 126.925,303.076 127.5,301.5C 129.721,298.747 131.721,295.747 133.5,292.5 Z"/></g>
<g><path style="opacity:1" fill="#3182bd" d="M 334.5,301.5 C 338.529,302.186 341.529,304.353 343.5,308C 340.469,308.495 337.469,308.329 334.5,307.5C 334.5,305.5 334.5,303.5 334.5,301.5 Z"/></g>
<g><path style="opacity:1" fill="#6fafd6" d="M 85.5,310.5 C 86.5521,312.256 88.2188,312.923 90.5,312.5C 90.3505,311.448 90.5172,310.448 91,309.5C 92.0113,310.337 93.1779,310.67 94.5,310.5C 94.2786,313.279 94.612,315.946 95.5,318.5C 96.1667,320.5 96.8333,322.5 97.5,324.5C 96.1667,324.5 94.8333,324.5 93.5,324.5C 93.203,328.767 93.5363,332.934 94.5,337C 92.4144,337.315 90.4144,337.815 88.5,338.5C 84.9581,338.813 81.6248,338.479 78.5,337.5C 78.0825,336.778 77.4158,336.278 76.5,336C 80.5187,327.781 81.5187,319.114 79.5,310C 79.6135,308.72 80.2801,307.887 81.5,307.5C 83.1595,308.172 84.4928,309.172 85.5,310.5 Z"/></g>
<g><path style="opacity:1" fill="#88a6c9" d="M 264.5,307.5 C 267.09,307.396 269.423,308.063 271.5,309.5C 274.614,308.324 276.947,309.324 278.5,312.5C 278.167,312.833 277.833,313.167 277.5,313.5C 274.308,312.134 270.974,311.301 267.5,311C 265.574,310.578 264.574,309.411 264.5,307.5 Z"/></g>
<g><path style="opacity:1" fill="#70a6ce" d="M 120.5,318.5 C 119.193,320.223 119.193,322.057 120.5,324C 117.629,326.837 118.295,328.504 122.5,329C 119.799,330.92 116.799,332.253 113.5,333C 115.119,333.236 116.119,334.069 116.5,335.5C 110.222,333.263 110.222,331.263 116.5,329.5C 117.768,330.428 119.101,330.595 120.5,330C 118.82,329.653 117.82,328.653 117.5,327C 118.045,323.813 118.711,320.646 119.5,317.5C 120.107,317.624 120.44,317.957 120.5,318.5 Z"/></g>
<g><path style="opacity:1" fill="#3c86bf" d="M 120.5,318.5 C 120.5,319.167 120.5,319.833 120.5,320.5C 120.821,322.048 121.821,322.715 123.5,322.5C 125.5,322.5 127.5,322.5 129.5,322.5C 131.763,329.64 129.43,334.64 122.5,337.5C 121.969,339.544 120.802,341.211 119,342.5C 119.178,347.207 119.011,351.874 118.5,356.5C 116.307,353.381 115.974,350.047 117.5,346.5C 117.5,346.167 117.5,345.833 117.5,345.5C 117.5,343.167 117.5,340.833 117.5,338.5C 117.737,337.209 117.404,336.209 116.5,335.5C 116.119,334.069 115.119,333.236 113.5,333C 116.799,332.253 119.799,330.92 122.5,329C 118.295,328.504 117.629,326.837 120.5,324C 119.193,322.057 119.193,320.223 120.5,318.5 Z"/></g>
<g><path style="opacity:1" fill="#fefffe" d="M 120.5,320.5 C 121.71,320.932 122.71,321.599 123.5,322.5C 121.821,322.715 120.821,322.048 120.5,320.5 Z"/></g>
<g><path style="opacity:1" fill="#8faecc" d="M 149.5,324.5 C 150.898,325.777 151.564,327.443 151.5,329.5C 150.192,338.595 148.359,347.595 146,356.5C 143.2,361.945 140.7,361.778 138.5,356C 138.339,352.096 139.006,348.096 140.5,344C 138.412,338.008 140.412,334.175 146.5,332.5C 147.578,329.793 148.578,327.126 149.5,324.5 Z"/></g>
<g><path style="opacity:1" fill="#08509c" d="M 149.5,328.5 C 150.097,328.735 150.43,329.235 150.5,330C 148.926,338.537 147.092,347.037 145,355.5C 144.632,356.91 143.799,357.91 142.5,358.5C 140.835,356.744 139.835,354.577 139.5,352C 141.489,347.928 141.822,343.761 140.5,339.5C 141.04,338.252 141.707,337.085 142.5,336C 146.733,335.267 149.067,332.767 149.5,328.5 Z"/></g>
<g><path style="opacity:1" fill="#bcd7e6" d="M 317.5,329.5 C 318.309,331.292 318.809,333.292 319,335.5C 321.925,337.714 324.759,340.047 327.5,342.5C 331.094,343.426 334.76,343.759 338.5,343.5C 338.281,342.325 338.614,341.325 339.5,340.5C 339.975,344.789 341.975,348.122 345.5,350.5C 347.522,355.449 350.356,359.782 354,363.5C 354.667,366.833 354.667,370.167 354,373.5C 350.946,378.019 348.946,383.019 348,388.5C 344.823,391.078 341.323,391.744 337.5,390.5C 335.704,385.734 334.037,380.901 332.5,376C 326.166,374.833 319.833,373.666 313.5,372.5C 308.745,372.807 304.078,373.64 299.5,375C 296.674,377.556 293.34,379.056 289.5,379.5C 287.253,372.092 285.586,364.592 284.5,357C 288.093,352.611 292.76,349.778 298.5,348.5C 299.752,346.999 300.752,345.332 301.5,343.5C 302.325,342.614 303.325,342.281 304.5,342.5C 304.297,340.61 304.963,339.11 306.5,338C 309.854,337.545 313.187,337.045 316.5,336.5C 316.448,334.097 316.781,331.764 317.5,329.5 Z"/></g>
<g><path style="opacity:1" fill="#fefffe" d="M 122.5,337.5 C 120.24,336.762 120.073,335.762 122,334.5C 122.483,335.448 122.649,336.448 122.5,337.5 Z"/></g>
<g><path style="opacity:1" fill="#bfd8e8" d="M 117.5,338.5 C 117.5,340.833 117.5,343.167 117.5,345.5C 113.618,346.637 109.784,346.637 106,345.5C 103.333,348.833 100.667,352.167 98,355.5C 97.2073,351.577 97.374,347.744 98.5,344C 100.035,343.504 101.535,343.67 103,344.5C 106.365,342.605 109.198,340.105 111.5,337C 113.874,336.257 115.874,336.757 117.5,338.5 Z"/></g>
<g><path style="opacity:1" fill="#68a2cc" d="M 77.5,337.5 C 78.5017,341.67 80.0017,345.67 82,349.5C 82.2727,354.229 82.9393,358.896 84,363.5C 85.049,365.107 86.549,365.773 88.5,365.5C 88.083,358.713 88.7497,352.046 90.5,345.5C 90.1604,343.488 89.8271,341.488 89.5,339.5C 90.9723,341.117 91.639,343.117 91.5,345.5C 90.2172,353.248 89.0505,360.914 88,368.5C 86.3333,367.167 84.6667,365.833 83,364.5C 81.9393,359.896 81.2727,355.229 81,350.5C 79.3488,346.528 77.5155,342.695 75.5,339C 76.0442,338.283 76.7109,337.783 77.5,337.5 Z"/></g>
<g><path style="opacity:1" fill="#3182bd" d="M 77.5,337.5 C 77.8333,337.5 78.1667,337.5 78.5,337.5C 81.6248,338.479 84.9581,338.813 88.5,338.5C 88.5,339.167 88.8333,339.5 89.5,339.5C 89.8271,341.488 90.1604,343.488 90.5,345.5C 88.7497,352.046 88.083,358.713 88.5,365.5C 86.549,365.773 85.049,365.107 84,363.5C 82.9393,358.896 82.2727,354.229 82,349.5C 80.0017,345.67 78.5017,341.67 77.5,337.5 Z"/></g>
</svg>
